<?xml version="1.0" encoding="UTF-8"?>
<svg xmlns="http://www.w3.org/2000/svg" style="stroke-dasharray:none; shape-rendering:auto; font-family:'Arial'; text-rendering:auto; fill-opacity:1; color-interpolation:auto; color-rendering:auto; font-size:12; fill:black; stroke:black; image-rendering:auto; stroke-miterlimit:10; stroke-linecap:square; stroke-linejoin:miter; font-style:normal; stroke-width:1; stroke-dashoffset:0; font-weight:normal; stroke-opacity:1;" contentScriptType="text/ecmascript" preserveAspectRatio="xMidYMid meet" zoomAndPan="magnify" version="1.0" contentStyleType="text/css" xml:xlink="http://www.w3.org/1999/xlink" width="1473" height="346"><g sequence="1"><ellipse cx="57" cy="194" rx="17" ry="17" stroke-width="1" style="fill:url(#linearGradient66FF6696FF96B6FFB6_9011434);" stroke="336633" /></g><g sequence="2"><rect x="116" y="160" width="106" height="70" ry="5" rx="5" style="fill:url(#linearGradientF8FBFEEDF5FCDEEDFAD4E7F8E2E5E9_9449624);" stroke="191970" /></g><g componentSequence="2"><text x="169" y="175" text-anchor="middle" style="font-weight:bold;font-size:10px;stroke:none; fill:#333399"><tspan dy="14" x="169">Aprovação da</tspan><tspan dy="14" x="169">Emissão</tspan></text></g><g sequence="4"><rect x="270" y="167" width="106" height="56" ry="5" rx="5" style="fill:url(#linearGradientF8FBFEEDF5FCDEEDFAD4E7F8E2E5E9_15473250);" stroke="191970" /></g><g componentSequence="4"><text x="323" y="184" text-anchor="middle" style="font-weight:bold;font-size:10px;stroke:none; fill:#333399"><tspan dy="14" x="323">Avaliação Inicial</tspan></text></g><g sequence="6"><polygon points=" 540 174 570 144 600 174 570 204 540 174" style="fill:url(#linearGradientFAFBFCFFFFCC_2023044);" stroke="000000" /></g><ellipse cx="570" cy="174" rx="17" ry="17" stroke-width="1" style="fill:url(#linearGradientFAFBFCFFFFCC_8160445);" stroke="000000" /><g componentSequence="6"><text x="570" y="214" text-anchor="middle" style="font-weight:bold;font-size:10px;stroke:none; fill:#333399"><tspan dy="14" x="570">Avaliaçã</tspan><tspan dy="14" x="570">o das</tspan><tspan dy="14" x="570">Capa...</tspan></text></g><g sequence="7"><rect x="679" y="75" width="106" height="70" ry="5" rx="5" style="fill:url(#linearGradientF8FBFEEDF5FCDEEDFAD4E7F8E2E5E9_20805978);" stroke="191970" /></g><g componentSequence="7"><text x="732" y="90" text-anchor="middle" style="font-weight:bold;font-size:10px;stroke:none; fill:#333399"><tspan dy="14" x="732">Capacidade de</tspan><tspan dy="14" x="732">produção</tspan></text></g><g sequence="8"><rect x="679" y="159" width="106" height="70" ry="5" rx="5" style="fill:url(#linearGradientF8FBFEEDF5FCDEEDFAD4E7F8E2E5E9_17850133);" stroke="191970" /></g><g componentSequence="8"><text x="732" y="174" text-anchor="middle" style="font-weight:bold;font-size:10px;stroke:none; fill:#333399"><tspan dy="14" x="732">Capacidade Da</tspan><tspan dy="14" x="732">Qualidade</tspan></text></g><g sequence="9"><rect x="679" y="249" width="106" height="70" ry="5" rx="5" style="fill:url(#linearGradientF8FBFEEDF5FCDEEDFAD4E7F8E2E5E9_19683853);" stroke="191970" /></g><g componentSequence="9"><text x="732" y="264" text-anchor="middle" style="font-weight:bold;font-size:10px;stroke:none; fill:#333399"><tspan dy="14" x="732">Condições</tspan><tspan dy="14" x="732">Comerciais</tspan></text></g><g sequence="10"><polygon points=" 850 173 880 143 910 173 880 203 850 173" style="fill:url(#linearGradientFAFBFCFFFFCC_22897785);" stroke="000000" /></g><path style="fill:none; stroke-width:6; stroke:#000000;" d="M870.0 173.0 L890.0 173.0" /><path style="fill:none; stroke-width:6; stroke:#000000;" d="M880.0 163.0 L880.0 183.0" /><g componentSequence="10"><text x="880" y="213" text-anchor="middle" style="font-weight:bold;font-size:10px;stroke:none; fill:#333399"><tspan dy="14" x="880">Conclus</tspan><tspan dy="14" x="880">ão das</tspan><tspan dy="14" x="880">avali...</tspan></text></g><g sequence="18"><rect x="1029" y="108" width="106" height="70" ry="5" rx="5" style="fill:url(#linearGradientF8FBFEEDF5FCDEEDFAD4E7F8E2E5E9_33219776);" stroke="191970" /></g><g componentSequence="18"><text x="1082" y="123" text-anchor="middle" style="font-weight:bold;font-size:10px;stroke:none; fill:#333399"><tspan dy="14" x="1082">Classificação da</tspan><tspan dy="14" x="1082">Qualidade</tspan></text></g><g sequence="19"><rect x="1029" y="205" width="106" height="56" ry="5" rx="5" style="fill:url(#linearGradientF8FBFEEDF5FCDEEDFAD4E7F8E2E5E9_18493482);" stroke="191970" /></g><g componentSequence="19"><text x="1082" y="222" text-anchor="middle" style="font-weight:bold;font-size:10px;stroke:none; fill:#333399"><tspan dy="14" x="1082">Tipo de Acordo</tspan></text></g><g sequence="24"><polygon points=" 1200 180 1230 150 1260 180 1230 210 1200 180" style="fill:url(#linearGradientFAFBFCFFFFCC_27615444);" stroke="000000" /></g><path style="fill:none; stroke-width:6; stroke:#000000;" d="M1220.0 180.0 L1240.0 180.0" /><path style="fill:none; stroke-width:6; stroke:#000000;" d="M1230.0 170.0 L1230.0 190.0" /><g componentSequence="24"><text x="1230" y="220" text-anchor="middle" style="font-weight:bold;font-size:10px;stroke:none; fill:#333399"><tspan dy="14" x="1230">Conclus</tspan><tspan dy="14" x="1230">ão das</tspan><tspan dy="14" x="1230">consi...</tspan></text></g><g sequence="25"><rect x="1298" y="165" width="106" height="70" ry="5" rx="5" style="fill:url(#linearGradientF8FBFEEDF5FCDEEDFAD4E7F8E2E5E9_190003);" stroke="191970" /></g><g componentSequence="25"><text x="1351" y="180" text-anchor="middle" style="font-weight:bold;font-size:10px;stroke:none; fill:#333399"><tspan dy="14" x="1351">Ciência do</tspan><tspan dy="14" x="1351">Solicitante</tspan></text></g><g sequence="26"><ellipse cx="1455" cy="200" rx="17" ry="17" stroke-width="3" style="fill:url(#linearGradientFF6666FF9696FFB6B6_3722199);" stroke="993333" /></g><g sequence="31"><polygon points=" 940 167 970 137 1000 167 970 197 940 167" style="fill:url(#linearGradientFAFBFCFFFFCC_14498202);" stroke="000000" /></g><ellipse cx="970" cy="167" rx="17" ry="17" stroke-width="1" style="fill:url(#linearGradientFAFBFCFFFFCC_3955797);" stroke="000000" /><g componentSequence="31"><text x="970" y="207" text-anchor="middle" style="font-weight:bold;font-size:10px;stroke:none; fill:#333399"><tspan dy="14" x="970">Consider</tspan><tspan dy="14" x="970">ações</tspan><tspan dy="14" x="970">finais</tspan></text></g><g sequence="40"><polygon points=" 430 174 460 144 490 174 460 204 430 174" style="fill:url(#linearGradientFAFBFCFFFFCC_28712863);" stroke="000000" /></g><g componentSequence="40"><text x="460" y="214" text-anchor="middle" style="font-weight:bold;font-size:10px;stroke:none; fill:#333399"><tspan dy="14" x="460">Analise</tspan><tspan dy="14" x="460">da</tspan><tspan dy="14" x="460">neces...</tspan></text></g><g componentSequence="3"><text x="105" y="194" style="font-size:10px;font-weight:none;stroke:none; fill:#333399" text-anchor="left" /></g><g componentSequence="5"><text x="256" y="195" style="font-size:10px;font-weight:none;stroke:none; fill:#333399" text-anchor="left" /></g><g componentSequence="12"><text x="649" y="162" style="font-size:10px;font-weight:none;stroke:none; fill:#333399" text-anchor="left" /></g><g componentSequence="15"><text x="827" y="162" style="font-size:10px;font-weight:none;stroke:none; fill:#333399" text-anchor="left" /></g><g componentSequence="16"><text x="827" y="198" style="font-size:10px;font-weight:none;stroke:none; fill:#333399" text-anchor="left" /></g><g componentSequence="17"><text x="827" y="236" style="font-size:10px;font-weight:none;stroke:none; fill:#333399" text-anchor="left" /></g><g componentSequence="27"><text x="1177" y="180" style="font-size:10px;font-weight:none;stroke:none; fill:#333399" text-anchor="left" /></g><g componentSequence="28"><text x="1177" y="219" style="font-size:10px;font-weight:none;stroke:none; fill:#333399" text-anchor="left" /></g><g componentSequence="29"><text x="1289" y="205" style="font-size:10px;font-weight:none;stroke:none; fill:#333399" text-anchor="left" /></g><g componentSequence="30"><text x="1431" y="200" style="font-size:10px;font-weight:none;stroke:none; fill:#333399" text-anchor="left" /></g><g componentSequence="32"><text x="1024" y="175" style="font-size:10px;font-weight:none;stroke:none; fill:#333399" text-anchor="left" /></g><g componentSequence="33"><text x="1024" y="210" style="font-size:10px;font-weight:none;stroke:none; fill:#333399" text-anchor="left" /></g><g componentSequence="34"><text x="935" y="198" style="font-size:10px;font-weight:none;stroke:none; fill:#333399" text-anchor="left" /></g><g componentSequence="36"><text x="772" y="50" style="font-size:10px;font-weight:none;stroke:none; fill:#333399" text-anchor="left" /></g><g componentSequence="38"><text x="649" y="237" style="font-size:10px;font-weight:none;stroke:none; fill:#333399" text-anchor="left" /></g><g componentSequence="39"><text x="649" y="198" style="font-size:10px;font-weight:none;stroke:none; fill:#333399" text-anchor="left" /></g><g componentSequence="41"><text x="413" y="199" style="font-size:10px;font-weight:none;stroke:none; fill:#333399" text-anchor="left" /></g><g componentSequence="42"><text x="525" y="202" style="font-size:10px;font-weight:none;stroke:none; fill:#333399" text-anchor="left" /></g><g componentSequence="43"><text x="928" y="345" style="font-size:10px;font-weight:none;stroke:none; fill:#333399" text-anchor="left" /></g><path style="fill:none; stroke:#000000;stroke-width:1" d="M74.0 194.0 L115.0 194.0" /><polygon style="fill:#000000; stroke:#000000;" points=" 105 189 115 194 105 199 107 194" /><path style="fill:none; stroke:#000000;stroke-width:1" d="M222.0 195.0 L269.0 195.0" /><polygon style="fill:#000000; stroke:#000000;" points=" 259 190 269 195 259 200 261 195" /><path style="fill:none; stroke:#000000;stroke-width:1" d="M168.0 159.0 L168.0 50.0 L692.0 50.0 L1192.0 50.0 L1350.0 50.0 L1350.0 164.0" /><polygon style="fill:#000000; stroke:#000000;" points=" 1355 154 1350 164 1345 154 1350 156" /><path style="fill:none; stroke:#000000;stroke-width:1" d="M376.0 197.0 L429.0 200.0" /><polygon style="fill:#000000; stroke:#000000;" points=" 419 194 429 200 419 204 421 200" /><path style="fill:none; stroke:#000000;stroke-width:1" d="M600.0 184.0 L678.0 140.0" /><polygon style="fill:#000000; stroke:#000000;" points=" 667 141 678 140 672 149 671 144" /><path style="fill:none; stroke:#000000;stroke-width:1" d="M600.0 217.0 L678.0 257.0" /><polygon style="fill:#000000; stroke:#000000;" points=" 671 248 678 257 667 257 671 253" /><path style="fill:none; stroke:#000000;stroke-width:1" d="M600.0 200.0 L678.0 196.0" /><polygon style="fill:#000000; stroke:#000000;" points=" 668 192 678 196 668 202 670 196" /><path style="fill:none; stroke:#000000;stroke-width:1" d="M490.0 202.0 L539.0 202.0" /><polygon style="fill:#000000; stroke:#000000;" points=" 529 197 539 202 529 207 531 202" /><path style="fill:none; stroke:#000000;stroke-width:1" d="M785.0 142.0 L849.0 182.0" /><polygon style="fill:#000000; stroke:#000000;" points=" 843 172 849 182 838 181 842 178" /><path style="fill:none; stroke:#000000;stroke-width:1" d="M785.0 196.0 L849.0 199.0" /><polygon style="fill:#000000; stroke:#000000;" points=" 839 194 849 199 839 204 841 199" /><path style="fill:none; stroke:#000000;stroke-width:1" d="M785.0 254.0 L849.0 218.0" /><polygon style="fill:#000000; stroke:#000000;" points=" 838 219 849 218 843 227 842 222" /><path style="fill:none; stroke:#000000;stroke-width:1" d="M910.0 199.0 L939.0 197.0" /><polygon style="fill:#000000; stroke:#000000;" points=" 929 193 939 197 929 203 931 198" /><path style="fill:none; stroke:#000000;stroke-width:1" d="M1135.0 166.0 L1199.0 194.0" /><polygon style="fill:#000000; stroke:#000000;" points=" 1192 185 1199 194 1188 195 1192 191" /><path style="fill:none; stroke:#000000;stroke-width:1" d="M1000.0 181.0 L1028.0 168.0" /><polygon style="fill:#000000; stroke:#000000;" points=" 1017 168 1028 168 1021 177 1021 171" /><path style="fill:none; stroke:#000000;stroke-width:1" d="M1135.0 224.0 L1199.0 213.0" /><polygon style="fill:#000000; stroke:#000000;" points=" 1188 210 1199 213 1190 220 1191 214" /><path style="fill:none; stroke:#000000;stroke-width:1" d="M1000.0 205.0 L1028.0 215.0" /><polygon style="fill:#000000; stroke:#000000;" points=" 1020 207 1028 215 1017 216 1020 212" /><path style="fill:none; stroke:#000000;stroke-width:1" d="M1260.0 206.0 L1297.0 203.0" /><polygon style="fill:#000000; stroke:#000000;" points=" 1287 199 1297 203 1287 209 1289 204" /><path style="fill:none; stroke:#000000;stroke-width:1" d="M1404.0 200.0 L1437.0 200.0" /><polygon style="fill:#000000; stroke:#000000;" points=" 1427 195 1437 200 1427 205 1429 200" /><path style="fill:none; stroke:#000000;stroke-width:1" d="M460.0 260.0 L460.0 345.0 L908.0 345.0 L1350.0 345.0 L1350.0 235.0" /><polygon style="fill:#000000; stroke:#000000;" points=" 1345 245 1350 235 1355 245 1350 243" /><defs><linearGradient xmlns:xlink="http://www.w3.org/1999/xlink" xlink:href="#linearGradient66FF6696FF96B6FFB6" id="linearGradient66FF6696FF96B6FFB6_9011434" x1="0" y1="177.0" x2="0" y2="212.0" gradientUnits="userSpaceOnUse" xlink:type="simple" xlink:actuate="onLoad" xlink:show="other" /><linearGradient id="linearGradient66FF6696FF96B6FFB6"><stop style="stop-color:#66FF66;stop-opacity:1;" offset="0.0" id="stop66FF66" /><stop style="stop-color:#96FF96;stop-opacity:1;" offset="0.5" id="stop96FF96" /><stop style="stop-color:#B6FFB6;stop-opacity:1;" offset="1.0" id="stopB6FFB6" /></linearGradient><linearGradient xmlns:xlink="http://www.w3.org/1999/xlink" xlink:href="#linearGradientF8FBFEEDF5FCDEEDFAD4E7F8E2E5E9" id="linearGradientF8FBFEEDF5FCDEEDFAD4E7F8E2E5E9_9449624" x1="0" y1="160.0" x2="0" y2="266.0" gradientUnits="userSpaceOnUse" xlink:type="simple" xlink:actuate="onLoad" xlink:show="other" /><linearGradient id="linearGradientF8FBFEEDF5FCDEEDFAD4E7F8E2E5E9"><stop style="stop-color:#F8FBFE;stop-opacity:1;" offset="0.0" id="stopF8FBFE" /><stop style="stop-color:#EDF5FC;stop-opacity:1;" offset="0.25" id="stopEDF5FC" /><stop style="stop-color:#DEEDFA;stop-opacity:1;" offset="0.5" id="stopDEEDFA" /><stop style="stop-color:#D4E7F8;stop-opacity:1;" offset="0.75" id="stopD4E7F8" /><stop style="stop-color:#E2E5E9;stop-opacity:1;" offset="1.0" id="stopE2E5E9" /></linearGradient><linearGradient xmlns:xlink="http://www.w3.org/1999/xlink" xlink:href="#linearGradientF8FBFEEDF5FCDEEDFAD4E7F8E2E5E9" id="linearGradientF8FBFEEDF5FCDEEDFAD4E7F8E2E5E9_15473250" x1="0" y1="167.0" x2="0" y2="273.0" gradientUnits="userSpaceOnUse" xlink:type="simple" xlink:actuate="onLoad" xlink:show="other" /><linearGradient xmlns:xlink="http://www.w3.org/1999/xlink" xlink:href="#linearGradientFAFBFCFFFFCC" id="linearGradientFAFBFCFFFFCC_2023044" x1="0" y1="144.0" x2="0" y2="204.0" gradientUnits="userSpaceOnUse" xlink:type="simple" xlink:actuate="onLoad" xlink:show="other" /><linearGradient id="linearGradientFAFBFCFFFFCC"><stop style="stop-color:#FAFBFC;stop-opacity:1;" offset="0.0" id="stopFAFBFC" /><stop style="stop-color:#FFFFCC;stop-opacity:1;" offset="1.0" id="stopFFFFCC" /></linearGradient><linearGradient xmlns:xlink="http://www.w3.org/1999/xlink" xlink:href="#linearGradientFAFBFCFFFFCC" id="linearGradientFAFBFCFFFFCC_8160445" x1="0" y1="157.0" x2="0" y2="192.0" gradientUnits="userSpaceOnUse" xlink:type="simple" xlink:actuate="onLoad" xlink:show="other" /><linearGradient xmlns:xlink="http://www.w3.org/1999/xlink" xlink:href="#linearGradientF8FBFEEDF5FCDEEDFAD4E7F8E2E5E9" id="linearGradientF8FBFEEDF5FCDEEDFAD4E7F8E2E5E9_20805978" x1="0" y1="75.0" x2="0" y2="181.0" gradientUnits="userSpaceOnUse" xlink:type="simple" xlink:actuate="onLoad" xlink:show="other" /><linearGradient xmlns:xlink="http://www.w3.org/1999/xlink" xlink:href="#linearGradientF8FBFEEDF5FCDEEDFAD4E7F8E2E5E9" id="linearGradientF8FBFEEDF5FCDEEDFAD4E7F8E2E5E9_17850133" x1="0" y1="159.0" x2="0" y2="265.0" gradientUnits="userSpaceOnUse" xlink:type="simple" xlink:actuate="onLoad" xlink:show="other" /><linearGradient xmlns:xlink="http://www.w3.org/1999/xlink" xlink:href="#linearGradientF8FBFEEDF5FCDEEDFAD4E7F8E2E5E9" id="linearGradientF8FBFEEDF5FCDEEDFAD4E7F8E2E5E9_19683853" x1="0" y1="249.0" x2="0" y2="355.0" gradientUnits="userSpaceOnUse" xlink:type="simple" xlink:actuate="onLoad" xlink:show="other" /><linearGradient xmlns:xlink="http://www.w3.org/1999/xlink" xlink:href="#linearGradientFAFBFCFFFFCC" id="linearGradientFAFBFCFFFFCC_22897785" x1="0" y1="143.0" x2="0" y2="203.0" gradientUnits="userSpaceOnUse" xlink:type="simple" xlink:actuate="onLoad" xlink:show="other" /><linearGradient xmlns:xlink="http://www.w3.org/1999/xlink" xlink:href="#linearGradientF8FBFEEDF5FCDEEDFAD4E7F8E2E5E9" id="linearGradientF8FBFEEDF5FCDEEDFAD4E7F8E2E5E9_33219776" x1="0" y1="108.0" x2="0" y2="214.0" gradientUnits="userSpaceOnUse" xlink:type="simple" xlink:actuate="onLoad" xlink:show="other" /><linearGradient xmlns:xlink="http://www.w3.org/1999/xlink" xlink:href="#linearGradientF8FBFEEDF5FCDEEDFAD4E7F8E2E5E9" id="linearGradientF8FBFEEDF5FCDEEDFAD4E7F8E2E5E9_18493482" x1="0" y1="205.0" x2="0" y2="311.0" gradientUnits="userSpaceOnUse" xlink:type="simple" xlink:actuate="onLoad" xlink:show="other" /><linearGradient xmlns:xlink="http://www.w3.org/1999/xlink" xlink:href="#linearGradientFAFBFCFFFFCC" id="linearGradientFAFBFCFFFFCC_27615444" x1="0" y1="150.0" x2="0" y2="210.0" gradientUnits="userSpaceOnUse" xlink:type="simple" xlink:actuate="onLoad" xlink:show="other" /><linearGradient xmlns:xlink="http://www.w3.org/1999/xlink" xlink:href="#linearGradientF8FBFEEDF5FCDEEDFAD4E7F8E2E5E9" id="linearGradientF8FBFEEDF5FCDEEDFAD4E7F8E2E5E9_190003" x1="0" y1="165.0" x2="0" y2="271.0" gradientUnits="userSpaceOnUse" xlink:type="simple" xlink:actuate="onLoad" xlink:show="other" /><linearGradient xmlns:xlink="http://www.w3.org/1999/xlink" xlink:href="#linearGradientFF6666FF9696FFB6B6" id="linearGradientFF6666FF9696FFB6B6_3722199" x1="0" y1="183.0" x2="0" y2="218.0" gradientUnits="userSpaceOnUse" xlink:type="simple" xlink:actuate="onLoad" xlink:show="other" /><linearGradient id="linearGradientFF6666FF9696FFB6B6"><stop style="stop-color:#FF6666;stop-opacity:1;" offset="0.0" id="stopFF6666" /><stop style="stop-color:#FF9696;stop-opacity:1;" offset="0.5" id="stopFF9696" /><stop style="stop-color:#FFB6B6;stop-opacity:1;" offset="1.0" id="stopFFB6B6" /></linearGradient><linearGradient xmlns:xlink="http://www.w3.org/1999/xlink" xlink:href="#linearGradientFAFBFCFFFFCC" id="linearGradientFAFBFCFFFFCC_14498202" x1="0" y1="137.0" x2="0" y2="197.0" gradientUnits="userSpaceOnUse" xlink:type="simple" xlink:actuate="onLoad" xlink:show="other" /><linearGradient xmlns:xlink="http://www.w3.org/1999/xlink" xlink:href="#linearGradientFAFBFCFFFFCC" id="linearGradientFAFBFCFFFFCC_3955797" x1="0" y1="150.0" x2="0" y2="185.0" gradientUnits="userSpaceOnUse" xlink:type="simple" xlink:actuate="onLoad" xlink:show="other" /><linearGradient xmlns:xlink="http://www.w3.org/1999/xlink" xlink:href="#linearGradientFAFBFCFFFFCC" id="linearGradientFAFBFCFFFFCC_28712863" x1="0" y1="144.0" x2="0" y2="204.0" gradientUnits="userSpaceOnUse" xlink:type="simple" xlink:actuate="onLoad" xlink:show="other" /></defs></svg>
