<?xml version="1.0" encoding="UTF-8"?>
<svg xmlns="http://www.w3.org/2000/svg" style="stroke-dasharray:none; shape-rendering:auto; font-family:'Arial'; text-rendering:auto; fill-opacity:1; color-interpolation:auto; color-rendering:auto; font-size:12; fill:black; stroke:black; image-rendering:auto; stroke-miterlimit:10; stroke-linecap:square; stroke-linejoin:miter; font-style:normal; stroke-width:1; stroke-dashoffset:0; font-weight:normal; stroke-opacity:1;" contentScriptType="text/ecmascript" preserveAspectRatio="xMidYMid meet" zoomAndPan="magnify" version="1.0" contentStyleType="text/css" xml:xlink="http://www.w3.org/1999/xlink" width="801" height="453"><rect x="20" y="164" width="781" height="145" ry="0" rx="0" style="stroke:#000000; fill:#ADC9AC" /><g componentSequence="2"><text x="-236" y="27" transform="rotate(270)" text-anchor="middle" style="font-weight:bold;font-size:10px;stroke:none; fill:#434343"><tspan dy="14" x="-236">T.I</tspan></text></g><rect x="20" y="308" width="781" height="145" ry="0" rx="0" style="stroke:#000000; fill:#D0DAAE" /><g componentSequence="3"><text x="-380" y="27" transform="rotate(270)" text-anchor="middle" style="font-weight:bold;font-size:10px;stroke:none; fill:#434343"><tspan dy="14" x="-380">Gestor</tspan></text></g><rect x="20" y="20" width="781" height="145" ry="0" rx="0" style="stroke:#000000; fill:#82B0B7" /><g componentSequence="1"><text x="-92" y="27" transform="rotate(270)" text-anchor="middle" style="font-weight:bold;font-size:10px;stroke:none; fill:#434343"><tspan dy="14" x="-92">Solicitante</tspan></text></g><g sequence="4"><ellipse cx="117" cy="93" rx="17" ry="17" stroke-width="1" style="fill:url(#linearGradient66FF6696FF96B6FFB6_271121397);" stroke="336633" /></g><g sequence="5"><ellipse cx="207" cy="93" rx="17" ry="17" stroke-width="3" style="fill:url(#linearGradientFF6666FF9696FFB6B6_518985600);" stroke="993333" /></g><g sequence="7"><polygon points=" 90 250 120 220 150 250 120 280 90 250" style="fill:url(#linearGradientFAFBFCFFFFCC_449876101);" stroke="000000" /></g><g componentSequence="7"><text x="120" y="276" text-anchor="middle" style="font-weight:bold;font-size:10px;stroke:none; fill:#333399" /></g><g sequence="8"><rect x="70" y="380" width="106" height="56" ry="5" rx="5" style="fill:url(#linearGradientF8FBFEEDF5FCDEEDFAD4E7F8E2E5E9_1607605691);" stroke="191970" /></g><g componentSequence="8"><text x="123" y="397" text-anchor="middle" style="font-weight:bold;font-size:10px;stroke:none; fill:#333399"><tspan dy="14" x="123">Gestor</tspan></text></g><g sequence="9"><ellipse cx="247" cy="407" rx="17" ry="17" stroke-width="3" style="fill:url(#linearGradientFF6666FF9696FFB6B6_150123239);" stroke="993333" /></g><g sequence="13"><polygon points=" 160 200 190 170 220 200 190 230 160 200" style="fill:url(#linearGradientFAFBFCFFFFCC_1858594670);" stroke="000000" /></g><g componentSequence="13"><text x="190" y="226" text-anchor="middle" style="font-weight:bold;font-size:10px;stroke:none; fill:#333399" /></g><g sequence="16"><polygon points=" 260 231 290 201 320 231 290 261 260 231" style="fill:url(#linearGradientFAFBFCFFFFCC_1879905931);" stroke="000000" /></g><g componentSequence="16"><text x="290" y="257" text-anchor="middle" style="font-weight:bold;font-size:10px;stroke:none; fill:#333399" /></g><g sequence="17"><rect x="390" y="203" width="106" height="70" ry="5" rx="5" style="fill:url(#linearGradientF8FBFEEDF5FCDEEDFAD4E7F8E2E5E9_1073603316);" stroke="191970" /></g><g componentSequence="17"><text x="443" y="218" text-anchor="middle" style="font-weight:bold;font-size:10px;stroke:none; fill:#333399"><tspan dy="14" x="443">Atendimento TI</tspan><tspan dy="14" x="443">(Baixa)</tspan></text></g><g sequence="18"><rect x="510" y="203" width="106" height="70" ry="5" rx="5" style="fill:url(#linearGradientF8FBFEEDF5FCDEEDFAD4E7F8E2E5E9_579148390);" stroke="191970" /></g><g componentSequence="18"><text x="563" y="218" text-anchor="middle" style="font-weight:bold;font-size:10px;stroke:none; fill:#333399"><tspan dy="14" x="563">Atendimento TI</tspan><tspan dy="14" x="563">(Media)</tspan></text></g><g sequence="19"><rect x="630" y="203" width="106" height="70" ry="5" rx="5" style="fill:url(#linearGradientF8FBFEEDF5FCDEEDFAD4E7F8E2E5E9_1940415951);" stroke="191970" /></g><g componentSequence="19"><text x="683" y="218" text-anchor="middle" style="font-weight:bold;font-size:10px;stroke:none; fill:#333399"><tspan dy="14" x="683">Atendimento TI</tspan><tspan dy="14" x="683">(Alta)</tspan></text></g><g sequence="20"><rect x="500" y="66" width="106" height="56" ry="5" rx="5" style="fill:url(#linearGradientF8FBFEEDF5FCDEEDFAD4E7F8E2E5E9_1795791999);" stroke="191970" /></g><g componentSequence="20"><text x="553" y="83" text-anchor="middle" style="font-weight:bold;font-size:10px;stroke:none; fill:#333399"><tspan dy="14" x="553">Solicitante</tspan></text></g><g sequence="31"><ellipse cx="687" cy="93" rx="17" ry="17" stroke-width="3" style="fill:url(#linearGradientFF6666FF9696FFB6B6_1001601448);" stroke="993333" /></g><g componentSequence="6"><text x="172" y="93" style="font-size:10px;font-weight:none;stroke:none; fill:#333399" text-anchor="left" /></g><g componentSequence="10"><text x="213" y="407" style="font-size:10px;font-weight:none;stroke:none; fill:#333399" text-anchor="left" /></g><g componentSequence="11"><text x="131" y="337" style="font-size:10px;font-weight:none;stroke:none; fill:#333399" text-anchor="left" /></g><g componentSequence="12"><text x="128" y="165" style="font-size:10px;font-weight:none;stroke:none; fill:#333399" text-anchor="left" /></g><g componentSequence="14"><text x="158" y="140" style="font-size:10px;font-weight:none;stroke:none; fill:#333399" text-anchor="left" /></g><g componentSequence="15"><text x="165" y="312" style="font-size:10px;font-weight:none;stroke:none; fill:#333399" text-anchor="left" /></g><g componentSequence="21"><text x="511" y="162" style="font-size:10px;font-weight:none;stroke:none; fill:#333399" text-anchor="left" /></g><g componentSequence="22"><text x="567" y="162" style="font-size:10px;font-weight:none;stroke:none; fill:#333399" text-anchor="left" /></g><g componentSequence="23"><text x="624" y="162" style="font-size:10px;font-weight:none;stroke:none; fill:#333399" text-anchor="left" /></g><g componentSequence="24"><text x="250" y="222" style="font-size:10px;font-weight:none;stroke:none; fill:#333399" text-anchor="left" /></g><g componentSequence="25"><text x="215" y="324" style="font-size:10px;font-weight:none;stroke:none; fill:#333399" text-anchor="left" /></g><g componentSequence="26"><text x="421" y="172" style="font-size:10px;font-weight:none;stroke:none; fill:#333399" text-anchor="left" /></g><g componentSequence="27"><text x="365" y="238" style="font-size:10px;font-weight:none;stroke:none; fill:#333399" text-anchor="left" /></g><g componentSequence="29"><text x="520" y="301" style="font-size:10px;font-weight:none;stroke:none; fill:#333399" text-anchor="left" /></g><g componentSequence="30"><text x="456" y="288" style="font-size:10px;font-weight:none;stroke:none; fill:#333399" text-anchor="left" /></g><g componentSequence="32"><text x="648" y="93" style="font-size:10px;font-weight:none;stroke:none; fill:#333399" text-anchor="left" /></g><path style="fill:none; stroke:#000000;stroke-width:1" d="M135.0 93.0 L189.0 93.0" /><polygon style="fill:#000000; stroke:#000000;" points=" 179 88 189 93 179 98 181 93" /><path style="fill:none; stroke:#000000;stroke-width:1" d="M126.0 108.0 L166.0 169.0" /><polygon style="fill:#000000; stroke:#000000;" points=" 165 158 166 169 156 163 162 162" /><path style="fill:none; stroke:#000000;stroke-width:1" d="M119.0 219.0 L117.0 110.0" /><polygon style="fill:#000000; stroke:#000000;" points=" 112 120 117 110 122 120 117 118" /><path style="fill:none; stroke:#000000;stroke-width:1" d="M122.0 379.0 L120.0 294.0" /><polygon style="fill:#000000; stroke:#000000;" points=" 115 304 120 294 125 304 120 302" /><path style="fill:none; stroke:#000000;stroke-width:1" d="M176.0 407.0 L230.0 407.0" /><polygon style="fill:#000000; stroke:#000000;" points=" 220 402 230 407 220 412 222 407" /><path style="fill:none; stroke:#000000;stroke-width:1" d="M151.0 379.0 L259.0 269.0" /><polygon style="fill:#000000; stroke:#000000;" points=" 248 273 259 269 256 280 253 275" /><path style="fill:none; stroke:#000000;stroke-width:1" d="M177.0 244.0 L132.0 379.0" /><polygon style="fill:#000000; stroke:#000000;" points=" 140 371 132 379 130 368 135 371" /><path style="fill:none; stroke:#000000;stroke-width:1" d="M220.0 216.0 L259.0 228.0" /><polygon style="fill:#000000; stroke:#000000;" points=" 251 220 259 228 248 230 251 226" /><path style="fill:none; stroke:#000000;stroke-width:1" d="M320.0 238.0 L389.0 238.0" /><polygon style="fill:#000000; stroke:#000000;" points=" 379 233 389 238 379 243 381 238" /><path style="fill:none; stroke:#000000;stroke-width:1" d="M320.0 258.0 L386.0 301.0 L684.0 301.0 L683.0 273.0" /><polygon style="fill:#000000; stroke:#000000;" points=" 678 283 683 273 688 283 683 281" /><path style="fill:none; stroke:#000000;stroke-width:1" d="M320.0 251.0 L403.0 288.0 L564.0 288.0 L564.0 273.0" /><polygon style="fill:#000000; stroke:#000000;" points=" 559 283 564 273 569 283 564 281" /><path style="fill:none; stroke:#000000;stroke-width:1" d="M501.0 122.0 L320.0 221.0" /><polygon style="fill:#000000; stroke:#000000;" points=" 331 221 320 221 326 212 327 217" /><path style="fill:none; stroke:#000000;stroke-width:1" d="M470.0 202.0 L531.0 122.0" /><polygon style="fill:#000000; stroke:#000000;" points=" 521 127 531 122 529 133 526 128" /><path style="fill:none; stroke:#000000;stroke-width:1" d="M560.0 202.0 L555.0 122.0" /><polygon style="fill:#000000; stroke:#000000;" points=" 551 132 555 122 561 132 555 130" /><path style="fill:none; stroke:#000000;stroke-width:1" d="M650.0 202.0 L578.0 122.0" /><polygon style="fill:#000000; stroke:#000000;" points=" 581 133 578 122 588 126 583 128" /><path style="fill:none; stroke:#000000;stroke-width:1" d="M606.0 93.0 L670.0 93.0" /><polygon style="fill:#000000; stroke:#000000;" points=" 660 88 670 93 660 98 662 93" /><defs><linearGradient xmlns:xlink="http://www.w3.org/1999/xlink" xlink:href="#linearGradient66FF6696FF96B6FFB6" id="linearGradient66FF6696FF96B6FFB6_271121397" x1="0" y1="76.0" x2="0" y2="111.0" gradientUnits="userSpaceOnUse" xlink:type="simple" xlink:actuate="onLoad" xlink:show="other" /><linearGradient id="linearGradient66FF6696FF96B6FFB6"><stop style="stop-color:#66FF66;stop-opacity:1;" offset="0.0" id="stop66FF66" /><stop style="stop-color:#96FF96;stop-opacity:1;" offset="0.5" id="stop96FF96" /><stop style="stop-color:#B6FFB6;stop-opacity:1;" offset="1.0" id="stopB6FFB6" /></linearGradient><linearGradient xmlns:xlink="http://www.w3.org/1999/xlink" xlink:href="#linearGradientFF6666FF9696FFB6B6" id="linearGradientFF6666FF9696FFB6B6_518985600" x1="0" y1="76.0" x2="0" y2="111.0" gradientUnits="userSpaceOnUse" xlink:type="simple" xlink:actuate="onLoad" xlink:show="other" /><linearGradient id="linearGradientFF6666FF9696FFB6B6"><stop style="stop-color:#FF6666;stop-opacity:1;" offset="0.0" id="stopFF6666" /><stop style="stop-color:#FF9696;stop-opacity:1;" offset="0.5" id="stopFF9696" /><stop style="stop-color:#FFB6B6;stop-opacity:1;" offset="1.0" id="stopFFB6B6" /></linearGradient><linearGradient xmlns:xlink="http://www.w3.org/1999/xlink" xlink:href="#linearGradientFAFBFCFFFFCC" id="linearGradientFAFBFCFFFFCC_449876101" x1="0" y1="220.0" x2="0" y2="280.0" gradientUnits="userSpaceOnUse" xlink:type="simple" xlink:actuate="onLoad" xlink:show="other" /><linearGradient id="linearGradientFAFBFCFFFFCC"><stop style="stop-color:#FAFBFC;stop-opacity:1;" offset="0.0" id="stopFAFBFC" /><stop style="stop-color:#FFFFCC;stop-opacity:1;" offset="1.0" id="stopFFFFCC" /></linearGradient><linearGradient xmlns:xlink="http://www.w3.org/1999/xlink" xlink:href="#linearGradientF8FBFEEDF5FCDEEDFAD4E7F8E2E5E9" id="linearGradientF8FBFEEDF5FCDEEDFAD4E7F8E2E5E9_1607605691" x1="0" y1="380.0" x2="0" y2="486.0" gradientUnits="userSpaceOnUse" xlink:type="simple" xlink:actuate="onLoad" xlink:show="other" /><linearGradient id="linearGradientF8FBFEEDF5FCDEEDFAD4E7F8E2E5E9"><stop style="stop-color:#F8FBFE;stop-opacity:1;" offset="0.0" id="stopF8FBFE" /><stop style="stop-color:#EDF5FC;stop-opacity:1;" offset="0.25" id="stopEDF5FC" /><stop style="stop-color:#DEEDFA;stop-opacity:1;" offset="0.5" id="stopDEEDFA" /><stop style="stop-color:#D4E7F8;stop-opacity:1;" offset="0.75" id="stopD4E7F8" /><stop style="stop-color:#E2E5E9;stop-opacity:1;" offset="1.0" id="stopE2E5E9" /></linearGradient><linearGradient xmlns:xlink="http://www.w3.org/1999/xlink" xlink:href="#linearGradientFF6666FF9696FFB6B6" id="linearGradientFF6666FF9696FFB6B6_150123239" x1="0" y1="390.0" x2="0" y2="425.0" gradientUnits="userSpaceOnUse" xlink:type="simple" xlink:actuate="onLoad" xlink:show="other" /><linearGradient xmlns:xlink="http://www.w3.org/1999/xlink" xlink:href="#linearGradientFAFBFCFFFFCC" id="linearGradientFAFBFCFFFFCC_1858594670" x1="0" y1="170.0" x2="0" y2="230.0" gradientUnits="userSpaceOnUse" xlink:type="simple" xlink:actuate="onLoad" xlink:show="other" /><linearGradient xmlns:xlink="http://www.w3.org/1999/xlink" xlink:href="#linearGradientFAFBFCFFFFCC" id="linearGradientFAFBFCFFFFCC_1879905931" x1="0" y1="201.0" x2="0" y2="261.0" gradientUnits="userSpaceOnUse" xlink:type="simple" xlink:actuate="onLoad" xlink:show="other" /><linearGradient xmlns:xlink="http://www.w3.org/1999/xlink" xlink:href="#linearGradientF8FBFEEDF5FCDEEDFAD4E7F8E2E5E9" id="linearGradientF8FBFEEDF5FCDEEDFAD4E7F8E2E5E9_1073603316" x1="0" y1="203.0" x2="0" y2="309.0" gradientUnits="userSpaceOnUse" xlink:type="simple" xlink:actuate="onLoad" xlink:show="other" /><linearGradient xmlns:xlink="http://www.w3.org/1999/xlink" xlink:href="#linearGradientF8FBFEEDF5FCDEEDFAD4E7F8E2E5E9" id="linearGradientF8FBFEEDF5FCDEEDFAD4E7F8E2E5E9_579148390" x1="0" y1="203.0" x2="0" y2="309.0" gradientUnits="userSpaceOnUse" xlink:type="simple" xlink:actuate="onLoad" xlink:show="other" /><linearGradient xmlns:xlink="http://www.w3.org/1999/xlink" xlink:href="#linearGradientF8FBFEEDF5FCDEEDFAD4E7F8E2E5E9" id="linearGradientF8FBFEEDF5FCDEEDFAD4E7F8E2E5E9_1940415951" x1="0" y1="203.0" x2="0" y2="309.0" gradientUnits="userSpaceOnUse" xlink:type="simple" xlink:actuate="onLoad" xlink:show="other" /><linearGradient xmlns:xlink="http://www.w3.org/1999/xlink" xlink:href="#linearGradientF8FBFEEDF5FCDEEDFAD4E7F8E2E5E9" id="linearGradientF8FBFEEDF5FCDEEDFAD4E7F8E2E5E9_1795791999" x1="0" y1="66.0" x2="0" y2="172.0" gradientUnits="userSpaceOnUse" xlink:type="simple" xlink:actuate="onLoad" xlink:show="other" /><linearGradient xmlns:xlink="http://www.w3.org/1999/xlink" xlink:href="#linearGradientFF6666FF9696FFB6B6" id="linearGradientFF6666FF9696FFB6B6_1001601448" x1="0" y1="76.0" x2="0" y2="111.0" gradientUnits="userSpaceOnUse" xlink:type="simple" xlink:actuate="onLoad" xlink:show="other" /></defs></svg>
