<?xml version="1.0" encoding="UTF-8"?>
<svg xmlns="http://www.w3.org/2000/svg" style="stroke-dasharray:none; shape-rendering:auto; font-family:'Arial'; text-rendering:auto; fill-opacity:1; color-interpolation:auto; color-rendering:auto; font-size:12; fill:black; stroke:black; image-rendering:auto; stroke-miterlimit:10; stroke-linecap:square; stroke-linejoin:miter; font-style:normal; stroke-width:1; stroke-dashoffset:0; font-weight:normal; stroke-opacity:1;" contentScriptType="text/ecmascript" preserveAspectRatio="xMidYMid meet" zoomAndPan="magnify" version="1.0" contentStyleType="text/css" xml:xlink="http://www.w3.org/1999/xlink" width="1545" height="337"><g sequence="1"><ellipse cx="36" cy="111" rx="17" ry="17" stroke-width="1" style="fill:url(#linearGradient66FF6696FF96B6FFB6_768984865);" stroke="336633" /></g><g sequence="3"><rect x="110" y="83" width="106" height="56" ry="5" rx="5" style="fill:url(#linearGradientF8FBFEEDF5FCDEEDFAD4E7F8E2E5E9_588393707);" stroke="191970" /></g><g componentSequence="3"><text x="163" y="100" text-anchor="middle" style="font-weight:bold;font-size:10px;stroke:none; fill:#333399"><tspan dy="14" x="163">Análise</tspan></text></g><g sequence="11"><rect x="290" y="76" width="106" height="70" ry="5" rx="5" style="fill:url(#linearGradientF8FBFEEDF5FCDEEDFAD4E7F8E2E5E9_657304657);" stroke="191970" /></g><g componentSequence="11"><text x="343" y="91" text-anchor="middle" style="font-weight:bold;font-size:10px;stroke:none; fill:#333399"><tspan dy="14" x="343">Verificação do</tspan><tspan dy="14" x="343">contratante</tspan></text></g><g sequence="29"><rect x="1360" y="76" width="106" height="70" ry="5" rx="5" style="fill:url(#linearGradientF8FBFEEDF5FCDEEDFAD4E7F8E2E5E9_1647257296);" stroke="191970" /></g><g componentSequence="29"><text x="1413" y="91" text-anchor="middle" style="font-weight:bold;font-size:10px;stroke:none; fill:#333399"><tspan dy="14" x="1413">Lançamento</tspan><tspan dy="14" x="1413">TOTVS/Datasul</tspan></text></g><g sequence="30"><ellipse cx="1527" cy="236" rx="17" ry="17" stroke-width="3" style="fill:url(#linearGradientFF6666FF9696FFB6B6_1639975291);" stroke="993333" /></g><g sequence="38"><rect x="434" y="201" width="106" height="70" ry="5" rx="5" style="fill:url(#linearGradientF8FBFEEDF5FCDEEDFAD4E7F8E2E5E9_1392968924);" stroke="191970" /></g><g componentSequence="38"><text x="487" y="216" text-anchor="middle" style="font-weight:bold;font-size:10px;stroke:none; fill:#333399"><tspan dy="14" x="487">Conferencia do</tspan><tspan dy="14" x="487">Cancelamento</tspan></text></g><g sequence="45"><rect x="1360" y="208" width="106" height="56" ry="5" rx="5" style="fill:url(#linearGradientF8FBFEEDF5FCDEEDFAD4E7F8E2E5E9_419591625);" stroke="191970" /></g><g componentSequence="45"><text x="1413" y="225" text-anchor="middle" style="font-weight:bold;font-size:10px;stroke:none; fill:#333399"><tspan dy="14" x="1413">Notifica CAP</tspan></text></g><g sequence="48"><rect x="602" y="76" width="106" height="70" ry="5" rx="5" style="fill:url(#linearGradientF8FBFEEDF5FCDEEDFAD4E7F8E2E5E9_33610143);" stroke="191970" /></g><g componentSequence="48"><text x="655" y="91" text-anchor="middle" style="font-weight:bold;font-size:10px;stroke:none; fill:#333399"><tspan dy="14" x="655">Check dos</tspan><tspan dy="14" x="655">Dados</tspan></text></g><g sequence="52"><rect x="780" y="76" width="106" height="70" ry="5" rx="5" style="fill:url(#linearGradientF8FBFEEDF5FCDEEDFAD4E7F8E2E5E9_1676317557);" stroke="191970" /></g><g componentSequence="52"><text x="833" y="91" text-anchor="middle" style="font-weight:bold;font-size:10px;stroke:none; fill:#333399"><tspan dy="14" x="833">Vericação de</tspan><tspan dy="14" x="833">dados</tspan></text></g><g sequence="59"><rect x="1053" y="83" width="106" height="56" ry="5" rx="5" style="fill:url(#linearGradientF8FBFEEDF5FCDEEDFAD4E7F8E2E5E9_136333872);" stroke="191970" /></g><g componentSequence="59"><text x="1106" y="100" text-anchor="middle" style="font-weight:bold;font-size:10px;stroke:none; fill:#333399"><tspan dy="14" x="1106">Aprovação</tspan></text></g><g sequence="70"><polygon points=" 133 209 163 179 193 209 163 239 133 209" style="fill:url(#linearGradientFAFBFCFFFFCC_34003648);" stroke="000000" /></g><g componentSequence="70"><text x="163" y="249" text-anchor="middle" style="font-weight:bold;font-size:10px;stroke:none; fill:#333399"><tspan dy="14" x="163">Definir</tspan><tspan dy="14" x="163">Analisad</tspan><tspan dy="14" x="163">or</tspan></text></g><g sequence="74"><polygon points=" 457 90 487 60 517 90 487 120 457 90" style="fill:url(#linearGradientFAFBFCFFFFCC_105785150);" stroke="000000" /></g><g componentSequence="74"><text x="487" y="130" text-anchor="middle" style="font-weight:bold;font-size:10px;stroke:none; fill:#333399"><tspan dy="14" x="487">Aprovad</tspan><tspan dy="14" x="487">o?</tspan></text></g><g sequence="75"><polygon points=" 623 215 653 185 683 215 653 245 623 215" style="fill:url(#linearGradientFAFBFCFFFFCC_831024569);" stroke="000000" /></g><g componentSequence="75"><text x="653" y="255" text-anchor="middle" style="font-weight:bold;font-size:10px;stroke:none; fill:#333399"><tspan dy="14" x="653">Cancela</tspan><tspan dy="14" x="653">do ?</tspan></text></g><g sequence="76"><polygon points=" 947 97 977 67 1007 97 977 127 947 97" style="fill:url(#linearGradientFAFBFCFFFFCC_1005830258);" stroke="000000" /></g><g componentSequence="76"><text x="977" y="130" text-anchor="middle" style="font-weight:bold;font-size:10px;stroke:none; fill:#333399"><tspan dy="14" x="977">OK?</tspan></text></g><g sequence="77"><polygon points=" 1220 90 1250 60 1280 90 1250 120 1220 90" style="fill:url(#linearGradientFAFBFCFFFFCC_261610774);" stroke="000000" /></g><g componentSequence="77"><text x="1250" y="130" text-anchor="middle" style="font-weight:bold;font-size:10px;stroke:none; fill:#333399"><tspan dy="14" x="1250">Aprovad</tspan><tspan dy="14" x="1250">o?</tspan></text></g><g sequence="82"><ellipse cx="36" cy="236" rx="17" ry="17" stroke-width="1" style="fill:url(#linearGradientFFFF66FFFF96FFFFB6_2023193613);" stroke="999900" /></g><g sequence="82"><ellipse cx="36" cy="236" rx="12" ry="12" stroke-width="1" style="stroke:#000000; fill:none" /></g><g sequence="82"><path style="fill:none; stroke-width:1; stroke:#000000;" d="M25.0 236.0 L31.0 236.0" /></g><g sequence="82"><path style="fill:none; stroke-width:1; stroke:#000000;" d="M42.0 236.0 L48.0 236.0" /></g><g sequence="82"><path style="fill:none; stroke-width:1; stroke:#000000;" d="M36.0 225.0 L36.0 231.0" /></g><g sequence="82"><path style="fill:none; stroke-width:1; stroke:#000000;" d="M36.0 242.0 L36.0 248.0" /></g><g sequence="82"><ellipse cx="36" cy="236" rx="1" ry="1" stroke-width="1" style="stroke:#000000; fill:#000000" /></g><g sequence="82"><path style="fill:none; stroke-width:1; stroke:#000000;" d="M36.0 236.0 L44.0 231.0" /></g><g sequence="82"><path style="fill:none; stroke-width:1; stroke:#000000;" d="M36.0 236.0 L30.0 232.0" /></g><g sequence="82"><path style="fill:none; stroke-width:1; stroke:#000000;" d="M40.0 229.0 L42.0 226.0" /></g><g sequence="82"><path style="fill:none; stroke-width:1; stroke:#000000;" d="M43.0 232.0 L46.0 230.0" /></g><g sequence="82"><path style="fill:none; stroke-width:1; stroke:#000000;" d="M43.0 240.0 L46.0 242.0" /></g><g sequence="82"><path style="fill:none; stroke-width:1; stroke:#000000;" d="M40.0 243.0 L42.0 246.0" /></g><g sequence="82"><path style="fill:none; stroke-width:1; stroke:#000000;" d="M32.0 243.0 L30.0 246.0" /></g><g sequence="82"><path style="fill:none; stroke-width:1; stroke:#000000;" d="M29.0 240.0 L26.0 242.0" /></g><g sequence="82"><path style="fill:none; stroke-width:1; stroke:#000000;" d="M32.0 229.0 L30.0 226.0" /></g><g sequence="82"><path style="fill:none; stroke-width:1; stroke:#000000;" d="M29.0 232.0 L26.0 230.0" /></g><g componentSequence="17"><text x="436" y="111" style="font-size:10px;font-weight:none;stroke:none; fill:#333399" text-anchor="left" /></g><g componentSequence="36"><text x="263" y="111" style="font-size:10px;font-weight:none;stroke:none; fill:#333399" text-anchor="left" /></g><g componentSequence="39"><text x="497" y="181" style="font-size:10px;font-weight:none;stroke:none; fill:#333399" text-anchor="left"><tspan dy="14" x="497">Não</tspan></text></g><g componentSequence="41"><text x="591" y="236" style="font-size:10px;font-weight:none;stroke:none; fill:#333399" text-anchor="left" /></g><g componentSequence="42"><text x="437" y="323" style="font-size:10px;font-weight:none;stroke:none; fill:#333399" text-anchor="left"><tspan dy="14" x="437">Não</tspan></text></g><g componentSequence="46"><text x="1031" y="236" style="font-size:10px;font-weight:none;stroke:none; fill:#333399" text-anchor="left"><tspan dy="14" x="1031">Sim</tspan></text></g><g componentSequence="47"><text x="1485" y="289" style="font-size:10px;font-weight:none;stroke:none; fill:#333399" text-anchor="left" /></g><g componentSequence="49"><text x="569" y="111" style="font-size:10px;font-weight:none;stroke:none; fill:#333399" text-anchor="left"><tspan dy="14" x="569">Com Pedido</tspan></text></g><g componentSequence="53"><text x="754" y="111" style="font-size:10px;font-weight:none;stroke:none; fill:#333399" text-anchor="left" /></g><g componentSequence="56"><text x="926" y="111" style="font-size:10px;font-weight:none;stroke:none; fill:#333399" text-anchor="left" /></g><g componentSequence="58"><text x="821" y="46" style="font-size:10px;font-weight:none;stroke:none; fill:#333399" text-anchor="left"><tspan dy="14" x="821">Não</tspan></text></g><g componentSequence="60"><text x="1040" y="111" style="font-size:10px;font-weight:none;stroke:none; fill:#333399" text-anchor="left"><tspan dy="14" x="1040">Sim</tspan></text></g><g componentSequence="62"><text x="1199" y="111" style="font-size:10px;font-weight:none;stroke:none; fill:#333399" text-anchor="left" /></g><g componentSequence="65"><text x="893" y="172" style="font-size:10px;font-weight:none;stroke:none; fill:#333399" text-anchor="left" /></g><g componentSequence="67"><text x="1330" y="111" style="font-size:10px;font-weight:none;stroke:none; fill:#333399" text-anchor="left"><tspan dy="14" x="1330">Sim</tspan></text></g><g componentSequence="69"><text x="1423" y="177" style="font-size:10px;font-weight:none;stroke:none; fill:#333399" text-anchor="left" /></g><g componentSequence="72"><text x="173" y="159" style="font-size:10px;font-weight:none;stroke:none; fill:#333399" text-anchor="left" /></g><g componentSequence="83"><text x="46" y="174" style="font-size:10px;font-weight:none;stroke:none; fill:#333399" text-anchor="left" /></g><g componentSequence="84"><text x="103" y="236" style="font-size:10px;font-weight:none;stroke:none; fill:#333399" text-anchor="left" /></g><g componentSequence="86"><text x="798" y="323" style="font-size:10px;font-weight:none;stroke:none; fill:#333399" text-anchor="left"><tspan dy="14" x="798">Não</tspan></text></g><g componentSequence="87"><text x="818" y="28" style="font-size:10px;font-weight:none;stroke:none; fill:#333399" text-anchor="left"><tspan dy="14" x="818">Sem Pedido</tspan></text></g><g componentSequence="88"><text x="1498" y="236" style="font-size:10px;font-weight:none;stroke:none; fill:#333399" text-anchor="left" /></g><path style="fill:none; stroke:#000000;stroke-width:1" d="M36.0 129.0 L36.0 218.0" /><polygon style="fill:#000000; stroke:#000000;" points=" 41 208 36 218 31 208 36 210" /><path style="fill:none; stroke:#000000;stroke-width:1" d="M216.0 111.0 L289.0 111.0" /><polygon style="fill:#000000; stroke:#000000;" points=" 279 106 289 111 279 116 281 111" /><path style="fill:none; stroke:#000000;stroke-width:1" d="M163.0 178.0 L163.0 139.0" /><polygon style="fill:#000000; stroke:#000000;" points=" 158 149 163 139 168 149 163 147" /><path style="fill:none; stroke:#000000;stroke-width:1" d="M396.0 111.0 L456.0 111.0" /><polygon style="fill:#000000; stroke:#000000;" points=" 446 106 456 111 446 116 448 111" /><path style="fill:none; stroke:#000000;stroke-width:1" d="M652.0 287.0 L652.0 323.0 L342.0 323.0 L342.0 146.0" /><polygon style="fill:#000000; stroke:#000000;" points=" 337 156 342 146 347 156 342 154" /><path style="fill:none; stroke:#000000;stroke-width:1" d="M1250.0 162.0 L1250.0 323.0 L342.0 323.0 L342.0 146.0" /><polygon style="fill:#000000; stroke:#000000;" points=" 337 156 342 146 347 156 342 154" /><path style="fill:none; stroke:#000000;stroke-width:1" d="M1413.0 146.0 L1413.0 207.0" /><polygon style="fill:#000000; stroke:#000000;" points=" 1418 197 1413 207 1408 197 1413 199" /><path style="fill:none; stroke:#000000;stroke-width:1" d="M1280.0 111.0 L1359.0 111.0" /><polygon style="fill:#000000; stroke:#000000;" points=" 1349 106 1359 111 1349 116 1351 111" /><path style="fill:none; stroke:#009600;stroke-width:1" d="M1413.0 264.0 L1413.0 289.0 L1526.0 289.0 L1527.0 253.0" /><polygon style="fill:#009600; stroke:#009600;" points=" 1522 263 1527 253 1532 263 1527 261" /><path style="fill:none; stroke:#000000;stroke-width:1" d="M1466.0 236.0 L1509.0 236.0" /><polygon style="fill:#000000; stroke:#000000;" points=" 1499 231 1509 236 1499 241 1501 236" /><path style="fill:none; stroke:#000000;stroke-width:1" d="M540.0 236.0 L622.0 236.0" /><polygon style="fill:#000000; stroke:#000000;" points=" 612 231 622 236 612 241 614 236" /><path style="fill:none; stroke:#000000;stroke-width:1" d="M487.0 162.0 L487.0 200.0" /><polygon style="fill:#000000; stroke:#000000;" points=" 492 190 487 200 482 190 487 192" /><path style="fill:none; stroke:#000000;stroke-width:1" d="M683.0 236.0 L1359.0 236.0" /><polygon style="fill:#000000; stroke:#000000;" points=" 1349 231 1359 236 1349 241 1351 236" /><path style="fill:none; stroke:#000000;stroke-width:1" d="M708.0 111.0 L779.0 111.0" /><polygon style="fill:#000000; stroke:#000000;" points=" 769 106 779 111 769 116 771 111" /><path style="fill:none; stroke:#000000;stroke-width:1" d="M654.0 146.0 L654.0 172.0 L919.0 172.0 L1105.0 172.0 L1105.0 139.0" /><polygon style="fill:#000000; stroke:#000000;" points=" 1100 149 1105 139 1110 149 1105 147" /><path style="fill:none; stroke:#000000;stroke-width:1" d="M517.0 111.0 L601.0 111.0" /><polygon style="fill:#000000; stroke:#000000;" points=" 591 106 601 111 591 116 593 111" /><path style="fill:none; stroke:#000000;stroke-width:1" d="M976.0 66.0 L976.0 46.0 L812.0 46.0 L655.0 46.0 L655.0 75.0" /><polygon style="fill:#000000; stroke:#000000;" points=" 660 65 655 75 650 65 655 67" /><path style="fill:none; stroke:#000000;stroke-width:1" d="M886.0 111.0 L946.0 111.0" /><polygon style="fill:#000000; stroke:#000000;" points=" 936 106 946 111 936 116 938 111" /><path style="fill:none; stroke:#000000;stroke-width:1" d="M1159.0 111.0 L1219.0 111.0" /><polygon style="fill:#000000; stroke:#000000;" points=" 1209 106 1219 111 1209 116 1211 111" /><path style="fill:none; stroke:#000000;stroke-width:1" d="M1007.0 111.0 L1052.0 111.0" /><polygon style="fill:#000000; stroke:#000000;" points=" 1042 106 1052 111 1042 116 1044 111" /><path style="fill:none; stroke:#000000;stroke-width:1" d="M487.0 59.0 L487.0 28.0 L821.0 28.0 L1106.0 28.0 L1106.0 82.0" /><polygon style="fill:#000000; stroke:#000000;" points=" 1111 72 1106 82 1101 72 1106 74" /><path style="fill:none; stroke:#000000;stroke-width:1" d="M53.0 236.0 L132.0 236.0" /><polygon style="fill:#000000; stroke:#000000;" points=" 122 231 132 236 122 241 124 236" /><defs><linearGradient xmlns:xlink="http://www.w3.org/1999/xlink" xlink:href="#linearGradient66FF6696FF96B6FFB6" id="linearGradient66FF6696FF96B6FFB6_768984865" x1="0" y1="94.0" x2="0" y2="129.0" gradientUnits="userSpaceOnUse" xlink:type="simple" xlink:actuate="onLoad" xlink:show="other" /><linearGradient id="linearGradient66FF6696FF96B6FFB6"><stop style="stop-color:#66FF66;stop-opacity:1;" offset="0.0" id="stop66FF66" /><stop style="stop-color:#96FF96;stop-opacity:1;" offset="0.5" id="stop96FF96" /><stop style="stop-color:#B6FFB6;stop-opacity:1;" offset="1.0" id="stopB6FFB6" /></linearGradient><linearGradient xmlns:xlink="http://www.w3.org/1999/xlink" xlink:href="#linearGradientF8FBFEEDF5FCDEEDFAD4E7F8E2E5E9" id="linearGradientF8FBFEEDF5FCDEEDFAD4E7F8E2E5E9_588393707" x1="0" y1="83.0" x2="0" y2="189.0" gradientUnits="userSpaceOnUse" xlink:type="simple" xlink:actuate="onLoad" xlink:show="other" /><linearGradient id="linearGradientF8FBFEEDF5FCDEEDFAD4E7F8E2E5E9"><stop style="stop-color:#F8FBFE;stop-opacity:1;" offset="0.0" id="stopF8FBFE" /><stop style="stop-color:#EDF5FC;stop-opacity:1;" offset="0.25" id="stopEDF5FC" /><stop style="stop-color:#DEEDFA;stop-opacity:1;" offset="0.5" id="stopDEEDFA" /><stop style="stop-color:#D4E7F8;stop-opacity:1;" offset="0.75" id="stopD4E7F8" /><stop style="stop-color:#E2E5E9;stop-opacity:1;" offset="1.0" id="stopE2E5E9" /></linearGradient><linearGradient xmlns:xlink="http://www.w3.org/1999/xlink" xlink:href="#linearGradientF8FBFEEDF5FCDEEDFAD4E7F8E2E5E9" id="linearGradientF8FBFEEDF5FCDEEDFAD4E7F8E2E5E9_657304657" x1="0" y1="76.0" x2="0" y2="182.0" gradientUnits="userSpaceOnUse" xlink:type="simple" xlink:actuate="onLoad" xlink:show="other" /><linearGradient xmlns:xlink="http://www.w3.org/1999/xlink" xlink:href="#linearGradientF8FBFEEDF5FCDEEDFAD4E7F8E2E5E9" id="linearGradientF8FBFEEDF5FCDEEDFAD4E7F8E2E5E9_1647257296" x1="0" y1="76.0" x2="0" y2="182.0" gradientUnits="userSpaceOnUse" xlink:type="simple" xlink:actuate="onLoad" xlink:show="other" /><linearGradient xmlns:xlink="http://www.w3.org/1999/xlink" xlink:href="#linearGradientFF6666FF9696FFB6B6" id="linearGradientFF6666FF9696FFB6B6_1639975291" x1="0" y1="219.0" x2="0" y2="254.0" gradientUnits="userSpaceOnUse" xlink:type="simple" xlink:actuate="onLoad" xlink:show="other" /><linearGradient id="linearGradientFF6666FF9696FFB6B6"><stop style="stop-color:#FF6666;stop-opacity:1;" offset="0.0" id="stopFF6666" /><stop style="stop-color:#FF9696;stop-opacity:1;" offset="0.5" id="stopFF9696" /><stop style="stop-color:#FFB6B6;stop-opacity:1;" offset="1.0" id="stopFFB6B6" /></linearGradient><linearGradient xmlns:xlink="http://www.w3.org/1999/xlink" xlink:href="#linearGradientF8FBFEEDF5FCDEEDFAD4E7F8E2E5E9" id="linearGradientF8FBFEEDF5FCDEEDFAD4E7F8E2E5E9_1392968924" x1="0" y1="201.0" x2="0" y2="307.0" gradientUnits="userSpaceOnUse" xlink:type="simple" xlink:actuate="onLoad" xlink:show="other" /><linearGradient xmlns:xlink="http://www.w3.org/1999/xlink" xlink:href="#linearGradientF8FBFEEDF5FCDEEDFAD4E7F8E2E5E9" id="linearGradientF8FBFEEDF5FCDEEDFAD4E7F8E2E5E9_419591625" x1="0" y1="208.0" x2="0" y2="314.0" gradientUnits="userSpaceOnUse" xlink:type="simple" xlink:actuate="onLoad" xlink:show="other" /><linearGradient xmlns:xlink="http://www.w3.org/1999/xlink" xlink:href="#linearGradientF8FBFEEDF5FCDEEDFAD4E7F8E2E5E9" id="linearGradientF8FBFEEDF5FCDEEDFAD4E7F8E2E5E9_33610143" x1="0" y1="76.0" x2="0" y2="182.0" gradientUnits="userSpaceOnUse" xlink:type="simple" xlink:actuate="onLoad" xlink:show="other" /><linearGradient xmlns:xlink="http://www.w3.org/1999/xlink" xlink:href="#linearGradientF8FBFEEDF5FCDEEDFAD4E7F8E2E5E9" id="linearGradientF8FBFEEDF5FCDEEDFAD4E7F8E2E5E9_1676317557" x1="0" y1="76.0" x2="0" y2="182.0" gradientUnits="userSpaceOnUse" xlink:type="simple" xlink:actuate="onLoad" xlink:show="other" /><linearGradient xmlns:xlink="http://www.w3.org/1999/xlink" xlink:href="#linearGradientF8FBFEEDF5FCDEEDFAD4E7F8E2E5E9" id="linearGradientF8FBFEEDF5FCDEEDFAD4E7F8E2E5E9_136333872" x1="0" y1="83.0" x2="0" y2="189.0" gradientUnits="userSpaceOnUse" xlink:type="simple" xlink:actuate="onLoad" xlink:show="other" /><linearGradient xmlns:xlink="http://www.w3.org/1999/xlink" xlink:href="#linearGradientFAFBFCFFFFCC" id="linearGradientFAFBFCFFFFCC_34003648" x1="0" y1="179.0" x2="0" y2="239.0" gradientUnits="userSpaceOnUse" xlink:type="simple" xlink:actuate="onLoad" xlink:show="other" /><linearGradient id="linearGradientFAFBFCFFFFCC"><stop style="stop-color:#FAFBFC;stop-opacity:1;" offset="0.0" id="stopFAFBFC" /><stop style="stop-color:#FFFFCC;stop-opacity:1;" offset="1.0" id="stopFFFFCC" /></linearGradient><linearGradient xmlns:xlink="http://www.w3.org/1999/xlink" xlink:href="#linearGradientFAFBFCFFFFCC" id="linearGradientFAFBFCFFFFCC_105785150" x1="0" y1="60.0" x2="0" y2="120.0" gradientUnits="userSpaceOnUse" xlink:type="simple" xlink:actuate="onLoad" xlink:show="other" /><linearGradient xmlns:xlink="http://www.w3.org/1999/xlink" xlink:href="#linearGradientFAFBFCFFFFCC" id="linearGradientFAFBFCFFFFCC_831024569" x1="0" y1="185.0" x2="0" y2="245.0" gradientUnits="userSpaceOnUse" xlink:type="simple" xlink:actuate="onLoad" xlink:show="other" /><linearGradient xmlns:xlink="http://www.w3.org/1999/xlink" xlink:href="#linearGradientFAFBFCFFFFCC" id="linearGradientFAFBFCFFFFCC_1005830258" x1="0" y1="67.0" x2="0" y2="127.0" gradientUnits="userSpaceOnUse" xlink:type="simple" xlink:actuate="onLoad" xlink:show="other" /><linearGradient xmlns:xlink="http://www.w3.org/1999/xlink" xlink:href="#linearGradientFAFBFCFFFFCC" id="linearGradientFAFBFCFFFFCC_261610774" x1="0" y1="60.0" x2="0" y2="120.0" gradientUnits="userSpaceOnUse" xlink:type="simple" xlink:actuate="onLoad" xlink:show="other" /><linearGradient xmlns:xlink="http://www.w3.org/1999/xlink" xlink:href="#linearGradientFFFF66FFFF96FFFFB6" id="linearGradientFFFF66FFFF96FFFFB6_2023193613" x1="0" y1="219.0" x2="0" y2="254.0" gradientUnits="userSpaceOnUse" xlink:type="simple" xlink:actuate="onLoad" xlink:show="other" /><linearGradient id="linearGradientFFFF66FFFF96FFFFB6"><stop style="stop-color:#FFFF66;stop-opacity:1;" offset="0.0" id="stopFFFF66" /><stop style="stop-color:#FFFF96;stop-opacity:1;" offset="0.5" id="stopFFFF96" /><stop style="stop-color:#FFFFB6;stop-opacity:1;" offset="1.0" id="stopFFFFB6" /></linearGradient></defs></svg>
