<?xml version="1.0" encoding="UTF-8"?>
<svg xmlns="http://www.w3.org/2000/svg" style="stroke-dasharray:none; shape-rendering:auto; font-family:'Arial'; text-rendering:auto; fill-opacity:1; color-interpolation:auto; color-rendering:auto; font-size:12; fill:black; stroke:black; image-rendering:auto; stroke-miterlimit:10; stroke-linecap:square; stroke-linejoin:miter; font-style:normal; stroke-width:1; stroke-dashoffset:0; font-weight:normal; stroke-opacity:1;" contentScriptType="text/ecmascript" preserveAspectRatio="xMidYMid meet" zoomAndPan="magnify" version="1.0" contentStyleType="text/css" xml:xlink="http://www.w3.org/1999/xlink" width="1265" height="494"><g sequence="1"><ellipse cx="58" cy="34" rx="17" ry="17" stroke-width="1" style="fill:url(#linearGradient66FF6696FF96B6FFB6_443627051);" stroke="336633" /></g><g sequence="2"><rect x="6" y="312" width="106" height="70" ry="5" rx="5" style="fill:url(#linearGradientF8FBFEEDF5FCDEEDFAD4E7F8E2E5E9_347527957);" stroke="191970" /></g><g componentSequence="2"><text x="59" y="327" text-anchor="middle" style="font-weight:bold;font-size:10px;stroke:none; fill:#333399"><tspan dy="14" x="59">Aprovação</tspan><tspan dy="14" x="59">Diretoria</tspan></text></g><g sequence="3"><polygon points=" 150 168 180 138 210 168 180 198 150 168" style="fill:url(#linearGradientFAFBFCFFFFCC_277437787);" stroke="000000" /></g><g componentSequence="3"><text x="180" y="208" text-anchor="middle" style="font-weight:bold;font-size:10px;stroke:none; fill:#333399"><tspan dy="14" x="180">Verifica</tspan><tspan dy="14" x="180">Aprovaç</tspan><tspan dy="14" x="180">ão</tspan></text></g><g sequence="4"><rect x="267" y="11" width="106" height="70" ry="5" rx="5" style="fill:url(#linearGradientF8FBFEEDF5FCDEEDFAD4E7F8E2E5E9_1435226414);" stroke="191970" /></g><g componentSequence="4"><text x="320" y="26" text-anchor="middle" style="font-weight:bold;font-size:10px;stroke:none; fill:#333399"><tspan dy="14" x="320">Gerente passa</tspan><tspan dy="14" x="320">instruções</tspan></text></g><g sequence="5"><polygon points=" 290 168 320 138 350 168 320 198 290 168" style="fill:url(#linearGradientFAFBFCFFFFCC_1180202458);" stroke="000000" /></g><g componentSequence="5"><text x="320" y="208" text-anchor="middle" style="font-weight:bold;font-size:10px;stroke:none; fill:#333399"><tspan dy="14" x="320">Verifica</tspan><tspan dy="14" x="320">operaçã</tspan><tspan dy="14" x="320">o</tspan></text></g><g sequence="6"><rect x="390" y="161" width="106" height="70" ry="5" rx="5" style="fill:url(#linearGradientF8FBFEEDF5FCDEEDFAD4E7F8E2E5E9_1687445623);" stroke="191970" /></g><g componentSequence="6"><text x="443" y="176" text-anchor="middle" style="font-weight:bold;font-size:10px;stroke:none; fill:#333399"><tspan dy="14" x="443">Emite Pedido</tspan><tspan dy="14" x="443">(Troca)</tspan></text></g><g sequence="7"><rect x="267" y="321" width="106" height="70" ry="5" rx="5" style="fill:url(#linearGradientF8FBFEEDF5FCDEEDFAD4E7F8E2E5E9_1051564603);" stroke="191970" /></g><g componentSequence="7"><text x="320" y="336" text-anchor="middle" style="font-weight:bold;font-size:10px;stroke:none; fill:#333399"><tspan dy="14" x="320">Emite Pedido</tspan><tspan dy="14" x="320">(Faturamento)</tspan></text></g><g sequence="8"><rect x="390" y="314" width="106" height="84" ry="5" rx="5" style="fill:url(#linearGradientF8FBFEEDF5FCDEEDFAD4E7F8E2E5E9_899952225);" stroke="191970" /></g><g componentSequence="8"><text x="443" y="329" text-anchor="middle" style="font-weight:bold;font-size:10px;stroke:none; fill:#333399"><tspan dy="14" x="443">Transporte -</tspan><tspan dy="14" x="443">Entrga / Retirada</tspan></text></g><g sequence="9"><rect x="520" y="322" width="106" height="70" ry="5" rx="5" style="fill:url(#linearGradientF8FBFEEDF5FCDEEDFAD4E7F8E2E5E9_819424170);" stroke="191970" /></g><g componentSequence="9"><text x="573" y="337" text-anchor="middle" style="font-weight:bold;font-size:10px;stroke:none; fill:#333399"><tspan dy="14" x="573">Recebimento -</tspan><tspan dy="14" x="573">Fisico / Fiscal</tspan></text></g><g sequence="10"><rect x="662" y="181" width="106" height="56" ry="5" rx="5" style="fill:url(#linearGradientF8FBFEEDF5FCDEEDFAD4E7F8E2E5E9_1996956191);" stroke="191970" /></g><g componentSequence="10"><text x="715" y="198" text-anchor="middle" style="font-weight:bold;font-size:10px;stroke:none; fill:#333399"><tspan dy="14" x="715">Fiscal</tspan></text></g><g sequence="11"><polygon points=" 543 181 573 151 603 181 573 211 543 181" style="fill:url(#linearGradientFAFBFCFFFFCC_631837318);" stroke="000000" /></g><g componentSequence="11"><text x="573" y="221" text-anchor="middle" style="font-weight:bold;font-size:10px;stroke:none; fill:#333399"><tspan dy="14" x="573">Verifica</tspan><tspan dy="14" x="573">Fisico /</tspan><tspan dy="14" x="573">Fiscal</tspan></text></g><g sequence="12"><rect x="520" y="17" width="106" height="70" ry="5" rx="5" style="fill:url(#linearGradientF8FBFEEDF5FCDEEDFAD4E7F8E2E5E9_837482356);" stroke="191970" /></g><g componentSequence="12"><text x="573" y="32" text-anchor="middle" style="font-weight:bold;font-size:10px;stroke:none; fill:#333399"><tspan dy="14" x="573">Recebimento -</tspan><tspan dy="14" x="573">Entrada de NF</tspan></text></g><g sequence="13"><polygon points=" 902 188 932 158 962 188 932 218 902 188" style="fill:url(#linearGradientFAFBFCFFFFCC_988496088);" stroke="000000" /></g><g componentSequence="13"><text x="932" y="228" text-anchor="middle" style="font-weight:bold;font-size:10px;stroke:none; fill:#333399"><tspan dy="14" x="932">Verifica</tspan><tspan dy="14" x="932">Fiscal</tspan></text></g><g sequence="14"><polygon points=" 918 95 948 65 978 95 948 125 918 95" style="fill:url(#linearGradientFAFBFCFFFFCC_1957861952);" stroke="000000" /></g><g componentSequence="14"><text x="948" y="135" text-anchor="middle" style="font-weight:bold;font-size:10px;stroke:none; fill:#333399"><tspan dy="14" x="948">Divergen</tspan><tspan dy="14" x="948">cia de</tspan><tspan dy="14" x="948">Quant...</tspan></text></g><g sequence="15"><rect x="1026" y="11" width="106" height="84" ry="5" rx="5" style="fill:url(#linearGradientF8FBFEEDF5FCDEEDFAD4E7F8E2E5E9_425892722);" stroke="191970" /></g><g componentSequence="15"><text x="1079" y="26" text-anchor="middle" style="font-weight:bold;font-size:10px;stroke:none; fill:#333399"><tspan dy="14" x="1079">Logistica efetua</tspan><tspan dy="14" x="1079">ajuste no</tspan><tspan dy="14" x="1079">estoque</tspan></text></g><g sequence="16"><rect x="1040" y="154" width="106" height="84" ry="5" rx="5" style="fill:url(#linearGradientF8FBFEEDF5FCDEEDFAD4E7F8E2E5E9_2136317565);" stroke="191970" /></g><g componentSequence="16"><text x="1093" y="169" text-anchor="middle" style="font-weight:bold;font-size:10px;stroke:none; fill:#333399"><tspan dy="14" x="1093">Gerente</tspan><tspan dy="14" x="1093">Responsável -</tspan><tspan dy="14" x="1093">Ação Imediata</tspan></text></g><g sequence="17"><rect x="1040" y="262" width="106" height="84" ry="5" rx="5" style="fill:url(#linearGradientF8FBFEEDF5FCDEEDFAD4E7F8E2E5E9_525925583);" stroke="191970" /></g><g componentSequence="17"><text x="1093" y="277" text-anchor="middle" style="font-weight:bold;font-size:10px;stroke:none; fill:#333399"><tspan dy="14" x="1093">Diretor Verifica e</tspan><tspan dy="14" x="1093">Aprova ou</tspan><tspan dy="14" x="1093">Rejeita</tspan></text></g><g sequence="19"><rect x="760" y="305" width="106" height="112" ry="5" rx="5" style="fill:url(#linearGradientF8FBFEEDF5FCDEEDFAD4E7F8E2E5E9_2136479230);" stroke="191970" /></g><g componentSequence="19"><text x="813" y="320" text-anchor="middle" style="font-weight:bold;font-size:10px;stroke:none; fill:#333399"><tspan dy="14" x="813">Transporte</tspan><tspan dy="14" x="813">Verifica Valores</tspan><tspan dy="14" x="813">a serem</tspan><tspan dy="14" x="813">Cobrados</tspan></text></g><g sequence="20"><rect x="1040" y="396" width="106" height="98" ry="5" rx="5" style="fill:url(#linearGradientF8FBFEEDF5FCDEEDFAD4E7F8E2E5E9_1928116332);" stroke="191970" /></g><g componentSequence="20"><text x="1093" y="411" text-anchor="middle" style="font-weight:bold;font-size:10px;stroke:none; fill:#333399"><tspan dy="14" x="1093">Financeiro -</tspan><tspan dy="14" x="1093">Cobra as</tspan><tspan dy="14" x="1093">despesas dos</tspan><tspan dy="14" x="1093">Responsaveis</tspan></text></g><g sequence="21"><ellipse cx="1247" cy="433" rx="17" ry="17" stroke-width="3" style="fill:url(#linearGradientFF6666FF9696FFB6B6_563705402);" stroke="993333" /></g><g sequence="22"><polygon points=" 798 31 828 1 858 31 828 61 798 31" style="fill:url(#linearGradientFAFBFCFFFFCC_2038384706);" stroke="000000" /></g><g componentSequence="22"><text x="828" y="71" text-anchor="middle" style="font-weight:bold;font-size:10px;stroke:none; fill:#333399"><tspan dy="14" x="828">Divergen</tspan><tspan dy="14" x="828">cia ?</tspan></text></g><g sequence="23"><polygon points=" 29 162 59 132 89 162 59 192 29 162" style="fill:url(#linearGradientFAFBFCFFFFCC_1186420086);" stroke="000000" /></g><g componentSequence="23"><text x="59" y="202" text-anchor="middle" style="font-weight:bold;font-size:10px;stroke:none; fill:#333399"><tspan dy="14" x="59">Automati</tspan><tspan dy="14" x="59">ca *</tspan></text></g><g sequence="25"><polygon points=" 918 306 948 276 978 306 948 336 918 306" style="fill:url(#linearGradientFAFBFCFFFFCC_1359981076);" stroke="000000" /></g><g componentSequence="25"><text x="948" y="346" text-anchor="middle" style="font-weight:bold;font-size:10px;stroke:none; fill:#333399"><tspan dy="14" x="948">Verifica</tspan><tspan dy="14" x="948">Debito</tspan></text></g><g componentSequence="1"><text x="68" y="92" style="font-size:10px;font-weight:none;stroke:none; fill:#333399" text-anchor="left" /></g><g componentSequence="2"><text x="128" y="273" style="font-size:10px;font-weight:none;stroke:none; fill:#333399" text-anchor="left" /></g><g componentSequence="3"><text x="121" y="104" style="font-size:10px;font-weight:none;stroke:none; fill:#333399" text-anchor="left" /></g><g componentSequence="4"><text x="258" y="122" style="font-size:10px;font-weight:none;stroke:none; fill:#333399" text-anchor="left" /></g><g componentSequence="5"><text x="330" y="109" style="font-size:10px;font-weight:none;stroke:none; fill:#333399" text-anchor="left" /></g><g componentSequence="6"><text x="380" y="196" style="font-size:10px;font-weight:none;stroke:none; fill:#333399" text-anchor="left" /></g><g componentSequence="7"><text x="330" y="287" style="font-size:10px;font-weight:none;stroke:none; fill:#333399" text-anchor="left" /></g><g componentSequence="8"><text x="453" y="272" style="font-size:10px;font-weight:none;stroke:none; fill:#333399" text-anchor="left" /></g><g componentSequence="9"><text x="391" y="356" style="font-size:10px;font-weight:none;stroke:none; fill:#333399" text-anchor="left" /></g><g componentSequence="10"><text x="518" y="356" style="font-size:10px;font-weight:none;stroke:none; fill:#333399" text-anchor="left" /></g><g componentSequence="11"><text x="583" y="294" style="font-size:10px;font-weight:none;stroke:none; fill:#333399" text-anchor="left" /></g><g componentSequence="12"><text x="642" y="209" style="font-size:10px;font-weight:none;stroke:none; fill:#333399" text-anchor="left" /></g><g componentSequence="13"><text x="583" y="119" style="font-size:10px;font-weight:none;stroke:none; fill:#333399" text-anchor="left" /></g><g componentSequence="14"><text x="845" y="209" style="font-size:10px;font-weight:none;stroke:none; fill:#333399" text-anchor="left" /></g><g componentSequence="15"><text x="774" y="135" style="font-size:10px;font-weight:none;stroke:none; fill:#333399" text-anchor="left" /></g><g componentSequence="16"><text x="774" y="278" style="font-size:10px;font-weight:none;stroke:none; fill:#333399" text-anchor="left" /></g><g componentSequence="17"><text x="722" y="52" style="font-size:10px;font-weight:none;stroke:none; fill:#333399" text-anchor="left" /></g><g componentSequence="18"><text x="1012" y="90" style="font-size:10px;font-weight:none;stroke:none; fill:#333399" text-anchor="left" /></g><g componentSequence="19"><text x="1019" y="149" style="font-size:10px;font-weight:none;stroke:none; fill:#333399" text-anchor="left" /></g><g componentSequence="21"><text x="1103" y="250" style="font-size:10px;font-weight:none;stroke:none; fill:#333399" text-anchor="left" /></g><g componentSequence="25"><text x="963" y="403" style="font-size:10px;font-weight:none;stroke:none; fill:#333399" text-anchor="left" /></g><g componentSequence="27"><text x="898" y="84" style="font-size:10px;font-weight:none;stroke:none; fill:#333399" text-anchor="left" /></g><g componentSequence="28"><text x="952" y="52" style="font-size:10px;font-weight:none;stroke:none; fill:#333399" text-anchor="left" /></g><g componentSequence="29"><text x="1012" y="90" style="font-size:10px;font-weight:none;stroke:none; fill:#333399" text-anchor="left" /></g><g componentSequence="30"><text x="69" y="273" style="font-size:10px;font-weight:none;stroke:none; fill:#333399" text-anchor="left" /></g><g componentSequence="32"><text x="1019" y="317" style="font-size:10px;font-weight:none;stroke:none; fill:#333399" text-anchor="left" /></g><g componentSequence="33"><text x="902" y="341" style="font-size:10px;font-weight:none;stroke:none; fill:#333399" text-anchor="left" /></g><g componentSequence="34"><text x="1019" y="376" style="font-size:10px;font-weight:none;stroke:none; fill:#333399" text-anchor="left" /></g><g componentSequence="35"><text x="1198" y="438" style="font-size:10px;font-weight:none;stroke:none; fill:#333399" text-anchor="left" /></g><path style="fill:none; stroke:#000000;stroke-width:1" d="M58.0 51.0 L58.0 131.0" /><polygon style="fill:#000000; stroke:#000000;" points=" 63 121 58 131 53 121 58 123" /><path style="fill:none; stroke:#000000;stroke-width:1" d="M149.0 155.0 L68.0 48.0" /><polygon style="fill:#000000; stroke:#000000;" points=" 70 59 68 48 78 53 73 54" /><path style="fill:none; stroke:#000000;stroke-width:1" d="M87.0 311.0 L149.0 234.0" /><polygon style="fill:#000000; stroke:#000000;" points=" 139 239 149 234 147 245 144 240" /><path style="fill:none; stroke:#000000;stroke-width:1" d="M59.0 234.0 L59.0 311.0" /><polygon style="fill:#000000; stroke:#000000;" points=" 64 301 59 311 54 301 59 303" /><path style="fill:none; stroke:#000000;stroke-width:1" d="M210.0 163.0 L287.0 81.0" /><polygon style="fill:#000000; stroke:#000000;" points=" 277 85 287 81 284 92 282 87" /><path style="fill:none; stroke:#000000;stroke-width:1" d="M320.0 81.0 L320.0 137.0" /><polygon style="fill:#000000; stroke:#000000;" points=" 325 127 320 137 315 127 320 129" /><path style="fill:none; stroke:#000000;stroke-width:1" d="M350.0 196.0 L389.0 196.0" /><polygon style="fill:#000000; stroke:#000000;" points=" 379 191 389 196 379 201 381 196" /><path style="fill:none; stroke:#000000;stroke-width:1" d="M320.0 254.0 L320.0 320.0" /><polygon style="fill:#000000; stroke:#000000;" points=" 325 310 320 320 315 310 320 312" /><path style="fill:none; stroke:#000000;stroke-width:1" d="M443.0 231.0 L443.0 313.0" /><polygon style="fill:#000000; stroke:#000000;" points=" 448 303 443 313 438 303 443 305" /><path style="fill:none; stroke:#000000;stroke-width:1" d="M373.0 356.0 L389.0 356.0" /><polygon style="fill:#000000; stroke:#000000;" points=" 379 351 389 356 379 361 381 356" /><path style="fill:none; stroke:#000000;stroke-width:1" d="M496.0 356.0 L519.0 356.0" /><polygon style="fill:#000000; stroke:#000000;" points=" 509 351 519 356 509 361 511 356" /><path style="fill:none; stroke:#000000;stroke-width:1" d="M573.0 321.0 L573.0 267.0" /><polygon style="fill:#000000; stroke:#000000;" points=" 568 277 573 267 578 277 573 275" /><path style="fill:none; stroke:#000000;stroke-width:1" d="M901.0 221.0 L626.0 335.0" /><polygon style="fill:#000000; stroke:#000000;" points=" 637 336 626 335 633 327 633 332" /><path style="fill:none; stroke:#000000;stroke-width:1" d="M768.0 209.0 L901.0 209.0" /><polygon style="fill:#000000; stroke:#000000;" points=" 891 204 901 209 891 214 893 209" /><path style="fill:none; stroke:#000000;stroke-width:1" d="M603.0 209.0 L661.0 209.0" /><polygon style="fill:#000000; stroke:#000000;" points=" 651 204 661 209 651 214 653 209" /><path style="fill:none; stroke:#000000;stroke-width:1" d="M573.0 150.0 L573.0 87.0" /><polygon style="fill:#000000; stroke:#000000;" points=" 568 97 573 87 578 97 573 95" /><path style="fill:none; stroke:#000000;stroke-width:1" d="M626.0 52.0 L797.0 52.0" /><polygon style="fill:#000000; stroke:#000000;" points=" 787 47 797 52 787 57 789 52" /><path style="fill:none; stroke:#000000;stroke-width:1" d="M901.0 195.0 L626.0 75.0" /><polygon style="fill:#000000; stroke:#000000;" points=" 633 84 626 75 637 74 633 78" /><path style="fill:none; stroke:#000000;stroke-width:1" d="M978.0 101.0 L1025.0 79.0" /><polygon style="fill:#000000; stroke:#000000;" points=" 1014 79 1025 79 1018 88 1018 82" /><path style="fill:none; stroke:#000000;stroke-width:1" d="M978.0 132.0 L1039.0 166.0" /><polygon style="fill:#000000; stroke:#000000;" points=" 1033 157 1039 166 1028 165 1032 162" /><path style="fill:none; stroke:#000000;stroke-width:1" d="M858.0 68.0 L917.0 99.0" /><polygon style="fill:#000000; stroke:#000000;" points=" 910 90 917 99 906 99 910 95" /><path style="fill:none; stroke:#000000;stroke-width:1" d="M1025.0 79.0 L978.0 101.0" /><polygon style="fill:#000000; stroke:#000000;" points=" 989 101 978 101 985 92 985 98" /><path style="fill:none; stroke:#000000;stroke-width:1" d="M858.0 52.0 L1025.0 52.0" /><polygon style="fill:#000000; stroke:#000000;" points=" 1015 47 1025 52 1015 57 1017 52" /><path style="fill:none; stroke:#F00000;stroke-width:1" d="M1093.0 238.0 L1093.0 261.0" /><polygon style="fill:#F00000; stroke:#F00000;" points=" 1098 251 1093 261 1088 251 1093 253" /><polygon style="fill:#F00000; stroke:#F00000;" points=" 1088 248 1093 238 1098 248 1093 246" /><path style="fill:none; stroke:#000000;stroke-width:1" d="M1039.0 312.0 L978.0 322.0" /><polygon style="fill:#000000; stroke:#000000;" points=" 989 325 978 322 987 315 986 321" /><path style="fill:none; stroke:#000000;stroke-width:1" d="M866.0 377.0 L1039.0 429.0" /><polygon style="fill:#000000; stroke:#000000;" points=" 1031 421 1039 429 1028 431 1031 427" /><path style="fill:none; stroke:#000000;stroke-width:1" d="M917.0 334.0 L866.0 347.0" /><polygon style="fill:#000000; stroke:#000000;" points=" 877 349 866 347 874 340 874 345" /><path style="fill:none; stroke:#000000;stroke-width:1" d="M1146.0 441.0 L1230.0 434.0" /><polygon style="fill:#000000; stroke:#000000;" points=" 1220 430 1230 434 1220 440 1222 435" /><path style="fill:none; stroke:#000000;stroke-width:1" d="M978.0 351.0 L1039.0 401.0" /><polygon style="fill:#000000; stroke:#000000;" points=" 1034 391 1039 401 1028 399 1033 396" /><defs><linearGradient xmlns:xlink="http://www.w3.org/1999/xlink" xlink:href="#linearGradient66FF6696FF96B6FFB6" id="linearGradient66FF6696FF96B6FFB6_443627051" x1="0" y1="17.0" x2="0" y2="52.0" gradientUnits="userSpaceOnUse" xlink:type="simple" xlink:actuate="onLoad" xlink:show="other" /><linearGradient id="linearGradient66FF6696FF96B6FFB6"><stop style="stop-color:#66FF66;stop-opacity:1;" offset="0.0" id="stop66FF66" /><stop style="stop-color:#96FF96;stop-opacity:1;" offset="0.5" id="stop96FF96" /><stop style="stop-color:#B6FFB6;stop-opacity:1;" offset="1.0" id="stopB6FFB6" /></linearGradient><linearGradient xmlns:xlink="http://www.w3.org/1999/xlink" xlink:href="#linearGradientF8FBFEEDF5FCDEEDFAD4E7F8E2E5E9" id="linearGradientF8FBFEEDF5FCDEEDFAD4E7F8E2E5E9_347527957" x1="0" y1="312.0" x2="0" y2="418.0" gradientUnits="userSpaceOnUse" xlink:type="simple" xlink:actuate="onLoad" xlink:show="other" /><linearGradient id="linearGradientF8FBFEEDF5FCDEEDFAD4E7F8E2E5E9"><stop style="stop-color:#F8FBFE;stop-opacity:1;" offset="0.0" id="stopF8FBFE" /><stop style="stop-color:#EDF5FC;stop-opacity:1;" offset="0.25" id="stopEDF5FC" /><stop style="stop-color:#DEEDFA;stop-opacity:1;" offset="0.5" id="stopDEEDFA" /><stop style="stop-color:#D4E7F8;stop-opacity:1;" offset="0.75" id="stopD4E7F8" /><stop style="stop-color:#E2E5E9;stop-opacity:1;" offset="1.0" id="stopE2E5E9" /></linearGradient><linearGradient xmlns:xlink="http://www.w3.org/1999/xlink" xlink:href="#linearGradientFAFBFCFFFFCC" id="linearGradientFAFBFCFFFFCC_277437787" x1="0" y1="138.0" x2="0" y2="198.0" gradientUnits="userSpaceOnUse" xlink:type="simple" xlink:actuate="onLoad" xlink:show="other" /><linearGradient id="linearGradientFAFBFCFFFFCC"><stop style="stop-color:#FAFBFC;stop-opacity:1;" offset="0.0" id="stopFAFBFC" /><stop style="stop-color:#FFFFCC;stop-opacity:1;" offset="1.0" id="stopFFFFCC" /></linearGradient><linearGradient xmlns:xlink="http://www.w3.org/1999/xlink" xlink:href="#linearGradientF8FBFEEDF5FCDEEDFAD4E7F8E2E5E9" id="linearGradientF8FBFEEDF5FCDEEDFAD4E7F8E2E5E9_1435226414" x1="0" y1="11.0" x2="0" y2="117.0" gradientUnits="userSpaceOnUse" xlink:type="simple" xlink:actuate="onLoad" xlink:show="other" /><linearGradient xmlns:xlink="http://www.w3.org/1999/xlink" xlink:href="#linearGradientFAFBFCFFFFCC" id="linearGradientFAFBFCFFFFCC_1180202458" x1="0" y1="138.0" x2="0" y2="198.0" gradientUnits="userSpaceOnUse" xlink:type="simple" xlink:actuate="onLoad" xlink:show="other" /><linearGradient xmlns:xlink="http://www.w3.org/1999/xlink" xlink:href="#linearGradientF8FBFEEDF5FCDEEDFAD4E7F8E2E5E9" id="linearGradientF8FBFEEDF5FCDEEDFAD4E7F8E2E5E9_1687445623" x1="0" y1="161.0" x2="0" y2="267.0" gradientUnits="userSpaceOnUse" xlink:type="simple" xlink:actuate="onLoad" xlink:show="other" /><linearGradient xmlns:xlink="http://www.w3.org/1999/xlink" xlink:href="#linearGradientF8FBFEEDF5FCDEEDFAD4E7F8E2E5E9" id="linearGradientF8FBFEEDF5FCDEEDFAD4E7F8E2E5E9_1051564603" x1="0" y1="321.0" x2="0" y2="427.0" gradientUnits="userSpaceOnUse" xlink:type="simple" xlink:actuate="onLoad" xlink:show="other" /><linearGradient xmlns:xlink="http://www.w3.org/1999/xlink" xlink:href="#linearGradientF8FBFEEDF5FCDEEDFAD4E7F8E2E5E9" id="linearGradientF8FBFEEDF5FCDEEDFAD4E7F8E2E5E9_899952225" x1="0" y1="314.0" x2="0" y2="420.0" gradientUnits="userSpaceOnUse" xlink:type="simple" xlink:actuate="onLoad" xlink:show="other" /><linearGradient xmlns:xlink="http://www.w3.org/1999/xlink" xlink:href="#linearGradientF8FBFEEDF5FCDEEDFAD4E7F8E2E5E9" id="linearGradientF8FBFEEDF5FCDEEDFAD4E7F8E2E5E9_819424170" x1="0" y1="322.0" x2="0" y2="428.0" gradientUnits="userSpaceOnUse" xlink:type="simple" xlink:actuate="onLoad" xlink:show="other" /><linearGradient xmlns:xlink="http://www.w3.org/1999/xlink" xlink:href="#linearGradientF8FBFEEDF5FCDEEDFAD4E7F8E2E5E9" id="linearGradientF8FBFEEDF5FCDEEDFAD4E7F8E2E5E9_1996956191" x1="0" y1="181.0" x2="0" y2="287.0" gradientUnits="userSpaceOnUse" xlink:type="simple" xlink:actuate="onLoad" xlink:show="other" /><linearGradient xmlns:xlink="http://www.w3.org/1999/xlink" xlink:href="#linearGradientFAFBFCFFFFCC" id="linearGradientFAFBFCFFFFCC_631837318" x1="0" y1="151.0" x2="0" y2="211.0" gradientUnits="userSpaceOnUse" xlink:type="simple" xlink:actuate="onLoad" xlink:show="other" /><linearGradient xmlns:xlink="http://www.w3.org/1999/xlink" xlink:href="#linearGradientF8FBFEEDF5FCDEEDFAD4E7F8E2E5E9" id="linearGradientF8FBFEEDF5FCDEEDFAD4E7F8E2E5E9_837482356" x1="0" y1="17.0" x2="0" y2="123.0" gradientUnits="userSpaceOnUse" xlink:type="simple" xlink:actuate="onLoad" xlink:show="other" /><linearGradient xmlns:xlink="http://www.w3.org/1999/xlink" xlink:href="#linearGradientFAFBFCFFFFCC" id="linearGradientFAFBFCFFFFCC_988496088" x1="0" y1="158.0" x2="0" y2="218.0" gradientUnits="userSpaceOnUse" xlink:type="simple" xlink:actuate="onLoad" xlink:show="other" /><linearGradient xmlns:xlink="http://www.w3.org/1999/xlink" xlink:href="#linearGradientFAFBFCFFFFCC" id="linearGradientFAFBFCFFFFCC_1957861952" x1="0" y1="65.0" x2="0" y2="125.0" gradientUnits="userSpaceOnUse" xlink:type="simple" xlink:actuate="onLoad" xlink:show="other" /><linearGradient xmlns:xlink="http://www.w3.org/1999/xlink" xlink:href="#linearGradientF8FBFEEDF5FCDEEDFAD4E7F8E2E5E9" id="linearGradientF8FBFEEDF5FCDEEDFAD4E7F8E2E5E9_425892722" x1="0" y1="11.0" x2="0" y2="117.0" gradientUnits="userSpaceOnUse" xlink:type="simple" xlink:actuate="onLoad" xlink:show="other" /><linearGradient xmlns:xlink="http://www.w3.org/1999/xlink" xlink:href="#linearGradientF8FBFEEDF5FCDEEDFAD4E7F8E2E5E9" id="linearGradientF8FBFEEDF5FCDEEDFAD4E7F8E2E5E9_2136317565" x1="0" y1="154.0" x2="0" y2="260.0" gradientUnits="userSpaceOnUse" xlink:type="simple" xlink:actuate="onLoad" xlink:show="other" /><linearGradient xmlns:xlink="http://www.w3.org/1999/xlink" xlink:href="#linearGradientF8FBFEEDF5FCDEEDFAD4E7F8E2E5E9" id="linearGradientF8FBFEEDF5FCDEEDFAD4E7F8E2E5E9_525925583" x1="0" y1="262.0" x2="0" y2="368.0" gradientUnits="userSpaceOnUse" xlink:type="simple" xlink:actuate="onLoad" xlink:show="other" /><linearGradient xmlns:xlink="http://www.w3.org/1999/xlink" xlink:href="#linearGradientF8FBFEEDF5FCDEEDFAD4E7F8E2E5E9" id="linearGradientF8FBFEEDF5FCDEEDFAD4E7F8E2E5E9_2136479230" x1="0" y1="305.0" x2="0" y2="411.0" gradientUnits="userSpaceOnUse" xlink:type="simple" xlink:actuate="onLoad" xlink:show="other" /><linearGradient xmlns:xlink="http://www.w3.org/1999/xlink" xlink:href="#linearGradientF8FBFEEDF5FCDEEDFAD4E7F8E2E5E9" id="linearGradientF8FBFEEDF5FCDEEDFAD4E7F8E2E5E9_1928116332" x1="0" y1="396.0" x2="0" y2="502.0" gradientUnits="userSpaceOnUse" xlink:type="simple" xlink:actuate="onLoad" xlink:show="other" /><linearGradient xmlns:xlink="http://www.w3.org/1999/xlink" xlink:href="#linearGradientFF6666FF9696FFB6B6" id="linearGradientFF6666FF9696FFB6B6_563705402" x1="0" y1="416.0" x2="0" y2="451.0" gradientUnits="userSpaceOnUse" xlink:type="simple" xlink:actuate="onLoad" xlink:show="other" /><linearGradient id="linearGradientFF6666FF9696FFB6B6"><stop style="stop-color:#FF6666;stop-opacity:1;" offset="0.0" id="stopFF6666" /><stop style="stop-color:#FF9696;stop-opacity:1;" offset="0.5" id="stopFF9696" /><stop style="stop-color:#FFB6B6;stop-opacity:1;" offset="1.0" id="stopFFB6B6" /></linearGradient><linearGradient xmlns:xlink="http://www.w3.org/1999/xlink" xlink:href="#linearGradientFAFBFCFFFFCC" id="linearGradientFAFBFCFFFFCC_2038384706" x1="0" y1="1.0" x2="0" y2="61.0" gradientUnits="userSpaceOnUse" xlink:type="simple" xlink:actuate="onLoad" xlink:show="other" /><linearGradient xmlns:xlink="http://www.w3.org/1999/xlink" xlink:href="#linearGradientFAFBFCFFFFCC" id="linearGradientFAFBFCFFFFCC_1186420086" x1="0" y1="132.0" x2="0" y2="192.0" gradientUnits="userSpaceOnUse" xlink:type="simple" xlink:actuate="onLoad" xlink:show="other" /><linearGradient xmlns:xlink="http://www.w3.org/1999/xlink" xlink:href="#linearGradientFAFBFCFFFFCC" id="linearGradientFAFBFCFFFFCC_1359981076" x1="0" y1="276.0" x2="0" y2="336.0" gradientUnits="userSpaceOnUse" xlink:type="simple" xlink:actuate="onLoad" xlink:show="other" /></defs></svg>
