<?xml version="1.0" encoding="UTF-8"?>
<svg xmlns="http://www.w3.org/2000/svg" style="stroke-dasharray:none; shape-rendering:auto; font-family:'Arial'; text-rendering:auto; fill-opacity:1; color-interpolation:auto; color-rendering:auto; font-size:12; fill:black; stroke:black; image-rendering:auto; stroke-miterlimit:10; stroke-linecap:square; stroke-linejoin:miter; font-style:normal; stroke-width:1; stroke-dashoffset:0; font-weight:normal; stroke-opacity:1;" contentScriptType="text/ecmascript" preserveAspectRatio="xMidYMid meet" zoomAndPan="magnify" version="1.0" contentStyleType="text/css" xml:xlink="http://www.w3.org/1999/xlink" width="855" height="132"><g sequence="4"><ellipse cx="27" cy="64" rx="17" ry="17" stroke-width="1" style="fill:url(#linearGradient66FF6696FF96B6FFB6_20242252);" stroke="336633" /></g><g sequence="6"><rect x="80" y="30" width="106" height="70" ry="5" rx="5" style="fill:url(#linearGradientF8FBFEEDF5FCDEEDFAD4E7F8E2E5E9_32712602);" stroke="191970" /></g><g componentSequence="6"><text x="133" y="45" text-anchor="middle" style="font-weight:bold;font-size:10px;stroke:none; fill:#333399"><tspan dy="14" x="133">Definição da</tspan><tspan dy="14" x="133">Dispoção</tspan></text></g><g sequence="7"><rect x="420" y="37" width="106" height="56" ry="5" rx="5" style="fill:url(#linearGradientF8FBFEEDF5FCDEEDFAD4E7F8E2E5E9_30192700);" stroke="191970" /></g><g componentSequence="7"><text x="473" y="54" text-anchor="middle" style="font-weight:bold;font-size:10px;stroke:none; fill:#333399"><tspan dy="14" x="473">Resultado</tspan></text></g><g sequence="8"><rect x="670" y="37" width="106" height="56" ry="5" rx="5" style="fill:url(#linearGradientF8FBFEEDF5FCDEEDFAD4E7F8E2E5E9_13512097);" stroke="191970" /></g><g componentSequence="8"><text x="723" y="54" text-anchor="middle" style="font-weight:bold;font-size:10px;stroke:none; fill:#333399"><tspan dy="14" x="723">Conclusão</tspan></text></g><g sequence="9"><ellipse cx="837" cy="65" rx="17" ry="17" stroke-width="3" style="fill:url(#linearGradientFF6666FF9696FFB6B6_26428171);" stroke="993333" /></g><g sequence="17"><polygon points=" 320 44 350 14 380 44 350 74 320 44" style="fill:url(#linearGradientFAFBFCFFFFCC_25065044);" stroke="000000" /></g><g componentSequence="17"><text x="350" y="84" text-anchor="middle" style="font-weight:bold;font-size:10px;stroke:none; fill:#333399"><tspan dy="14" x="350">Atribuiçã</tspan><tspan dy="14" x="350">o</tspan></text></g><g sequence="20"><polygon points=" 230 44 260 14 290 44 260 74 230 44" style="fill:url(#linearGradientFAFBFCFFFFCC_29967955);" stroke="000000" /></g><g componentSequence="20"><text x="260" y="84" text-anchor="middle" style="font-weight:bold;font-size:10px;stroke:none; fill:#333399"><tspan dy="14" x="260">Disposiç</tspan><tspan dy="14" x="260">ão</tspan></text></g><g sequence="24"><polygon points=" 570 38 600 8 630 38 600 68 570 38" style="fill:url(#linearGradientFAFBFCFFFFCC_14799598);" stroke="000000" /></g><g componentSequence="24"><text x="600" y="78" text-anchor="middle" style="font-weight:bold;font-size:10px;stroke:none; fill:#333399"><tspan dy="14" x="600">Resultad</tspan><tspan dy="14" x="600">o</tspan><tspan dy="14" x="600">Eficaz?</tspan></text></g><g componentSequence="14"><text x="808" y="65" style="font-size:10px;font-weight:none;stroke:none; fill:#333399" text-anchor="left" /></g><g componentSequence="16"><text x="72" y="64" style="font-size:10px;font-weight:none;stroke:none; fill:#333399" text-anchor="left" /></g><g componentSequence="19"><text x="410" y="65" style="font-size:10px;font-weight:none;stroke:none; fill:#333399" text-anchor="left" /></g><g componentSequence="21"><text x="218" y="65" style="font-size:10px;font-weight:none;stroke:none; fill:#333399" text-anchor="left" /></g><g componentSequence="22"><text x="315" y="65" style="font-size:10px;font-weight:none;stroke:none; fill:#333399" text-anchor="left" /></g><g componentSequence="23"><text x="513" y="-9" style="font-size:10px;font-weight:none;stroke:none; fill:#333399" text-anchor="left" /></g><g componentSequence="25"><text x="558" y="65" style="font-size:10px;font-weight:none;stroke:none; fill:#333399" text-anchor="left" /></g><g componentSequence="26"><text x="660" y="65" style="font-size:10px;font-weight:none;stroke:none; fill:#333399" text-anchor="left" /></g><g componentSequence="27"><text x="369" y="131" style="font-size:10px;font-weight:none;stroke:none; fill:#333399" text-anchor="left" /></g><path style="fill:none; stroke:#000000;stroke-width:1" d="M44.0 64.0 L79.0 64.0" /><polygon style="fill:#000000; stroke:#000000;" points=" 69 59 79 64 69 69 71 64" /><path style="fill:none; stroke:#000000;stroke-width:1" d="M186.0 65.0 L229.0 65.0" /><polygon style="fill:#000000; stroke:#000000;" points=" 219 60 229 65 219 70 221 65" /><path style="fill:none; stroke:#000000;stroke-width:1" d="M607.0 124.0 L608.0 131.0 L133.0 131.0 L133.0 100.0" /><polygon style="fill:#000000; stroke:#000000;" points=" 128 110 133 100 138 110 133 108" /><path style="fill:none; stroke:#000000;stroke-width:1" d="M526.0 65.0 L569.0 65.0" /><polygon style="fill:#000000; stroke:#000000;" points=" 559 60 569 65 559 70 561 65" /><path style="fill:none; stroke:#000000;stroke-width:1" d="M380.0 65.0 L419.0 65.0" /><polygon style="fill:#000000; stroke:#000000;" points=" 409 60 419 65 409 70 411 65" /><path style="fill:none; stroke:#000000;stroke-width:1" d="M776.0 65.0 L819.0 65.0" /><polygon style="fill:#000000; stroke:#000000;" points=" 809 60 819 65 809 70 811 65" /><path style="fill:none; stroke:#000000;stroke-width:1" d="M260.0 13.0 L260.0 -9.0 L474.0 -9.0 L722.0 -9.0 L722.0 36.0" /><polygon style="fill:#000000; stroke:#000000;" points=" 727 26 722 36 717 26 722 28" /><path style="fill:none; stroke:#000000;stroke-width:1" d="M630.0 65.0 L669.0 65.0" /><polygon style="fill:#000000; stroke:#000000;" points=" 659 60 669 65 659 70 661 65" /><path style="fill:none; stroke:#000000;stroke-width:1" d="M290.0 65.0 L319.0 65.0" /><polygon style="fill:#000000; stroke:#000000;" points=" 309 60 319 65 309 70 311 65" /><defs><linearGradient xmlns:xlink="http://www.w3.org/1999/xlink" xlink:href="#linearGradient66FF6696FF96B6FFB6" id="linearGradient66FF6696FF96B6FFB6_20242252" x1="0" y1="47.0" x2="0" y2="82.0" gradientUnits="userSpaceOnUse" xlink:type="simple" xlink:actuate="onLoad" xlink:show="other" /><linearGradient id="linearGradient66FF6696FF96B6FFB6"><stop style="stop-color:#66FF66;stop-opacity:1;" offset="0.0" id="stop66FF66" /><stop style="stop-color:#96FF96;stop-opacity:1;" offset="0.5" id="stop96FF96" /><stop style="stop-color:#B6FFB6;stop-opacity:1;" offset="1.0" id="stopB6FFB6" /></linearGradient><linearGradient xmlns:xlink="http://www.w3.org/1999/xlink" xlink:href="#linearGradientF8FBFEEDF5FCDEEDFAD4E7F8E2E5E9" id="linearGradientF8FBFEEDF5FCDEEDFAD4E7F8E2E5E9_32712602" x1="0" y1="30.0" x2="0" y2="136.0" gradientUnits="userSpaceOnUse" xlink:type="simple" xlink:actuate="onLoad" xlink:show="other" /><linearGradient id="linearGradientF8FBFEEDF5FCDEEDFAD4E7F8E2E5E9"><stop style="stop-color:#F8FBFE;stop-opacity:1;" offset="0.0" id="stopF8FBFE" /><stop style="stop-color:#EDF5FC;stop-opacity:1;" offset="0.25" id="stopEDF5FC" /><stop style="stop-color:#DEEDFA;stop-opacity:1;" offset="0.5" id="stopDEEDFA" /><stop style="stop-color:#D4E7F8;stop-opacity:1;" offset="0.75" id="stopD4E7F8" /><stop style="stop-color:#E2E5E9;stop-opacity:1;" offset="1.0" id="stopE2E5E9" /></linearGradient><linearGradient xmlns:xlink="http://www.w3.org/1999/xlink" xlink:href="#linearGradientF8FBFEEDF5FCDEEDFAD4E7F8E2E5E9" id="linearGradientF8FBFEEDF5FCDEEDFAD4E7F8E2E5E9_30192700" x1="0" y1="37.0" x2="0" y2="143.0" gradientUnits="userSpaceOnUse" xlink:type="simple" xlink:actuate="onLoad" xlink:show="other" /><linearGradient xmlns:xlink="http://www.w3.org/1999/xlink" xlink:href="#linearGradientF8FBFEEDF5FCDEEDFAD4E7F8E2E5E9" id="linearGradientF8FBFEEDF5FCDEEDFAD4E7F8E2E5E9_13512097" x1="0" y1="37.0" x2="0" y2="143.0" gradientUnits="userSpaceOnUse" xlink:type="simple" xlink:actuate="onLoad" xlink:show="other" /><linearGradient xmlns:xlink="http://www.w3.org/1999/xlink" xlink:href="#linearGradientFF6666FF9696FFB6B6" id="linearGradientFF6666FF9696FFB6B6_26428171" x1="0" y1="48.0" x2="0" y2="83.0" gradientUnits="userSpaceOnUse" xlink:type="simple" xlink:actuate="onLoad" xlink:show="other" /><linearGradient id="linearGradientFF6666FF9696FFB6B6"><stop style="stop-color:#FF6666;stop-opacity:1;" offset="0.0" id="stopFF6666" /><stop style="stop-color:#FF9696;stop-opacity:1;" offset="0.5" id="stopFF9696" /><stop style="stop-color:#FFB6B6;stop-opacity:1;" offset="1.0" id="stopFFB6B6" /></linearGradient><linearGradient xmlns:xlink="http://www.w3.org/1999/xlink" xlink:href="#linearGradientFAFBFCFFFFCC" id="linearGradientFAFBFCFFFFCC_25065044" x1="0" y1="14.0" x2="0" y2="74.0" gradientUnits="userSpaceOnUse" xlink:type="simple" xlink:actuate="onLoad" xlink:show="other" /><linearGradient id="linearGradientFAFBFCFFFFCC"><stop style="stop-color:#FAFBFC;stop-opacity:1;" offset="0.0" id="stopFAFBFC" /><stop style="stop-color:#FFFFCC;stop-opacity:1;" offset="1.0" id="stopFFFFCC" /></linearGradient><linearGradient xmlns:xlink="http://www.w3.org/1999/xlink" xlink:href="#linearGradientFAFBFCFFFFCC" id="linearGradientFAFBFCFFFFCC_29967955" x1="0" y1="14.0" x2="0" y2="74.0" gradientUnits="userSpaceOnUse" xlink:type="simple" xlink:actuate="onLoad" xlink:show="other" /><linearGradient xmlns:xlink="http://www.w3.org/1999/xlink" xlink:href="#linearGradientFAFBFCFFFFCC" id="linearGradientFAFBFCFFFFCC_14799598" x1="0" y1="8.0" x2="0" y2="68.0" gradientUnits="userSpaceOnUse" xlink:type="simple" xlink:actuate="onLoad" xlink:show="other" /></defs></svg>
