<?xml version="1.0" encoding="UTF-8"?>
<svg xmlns="http://www.w3.org/2000/svg" style="stroke-dasharray:none; shape-rendering:auto; font-family:'Arial'; text-rendering:auto; fill-opacity:1; color-interpolation:auto; color-rendering:auto; font-size:12; fill:black; stroke:black; image-rendering:auto; stroke-miterlimit:10; stroke-linecap:square; stroke-linejoin:miter; font-style:normal; stroke-width:1; stroke-dashoffset:0; font-weight:normal; stroke-opacity:1;" contentScriptType="text/ecmascript" preserveAspectRatio="xMidYMid meet" zoomAndPan="magnify" version="1.0" contentStyleType="text/css" xml:xlink="http://www.w3.org/1999/xlink" width="875" height="188"><g sequence="4"><ellipse cx="47" cy="120" rx="17" ry="17" stroke-width="1" style="fill:url(#linearGradient66FF6696FF96B6FFB6_7243802);" stroke="336633" /></g><g sequence="6"><rect x="100" y="86" width="105" height="70" ry="5" rx="5" style="fill:url(#linearGradientF8FBFEEDF5FCDEEDFAD4E7F8E2E5E9_11107175);" stroke="191970" /></g><g componentSequence="6"><text x="152" y="101" text-anchor="middle" style="font-weight:bold;font-size:10px;stroke:none; fill:#333399"><tspan dy="14" x="152">Definição da</tspan><tspan dy="14" x="152">Dispoção</tspan></text></g><g sequence="7"><rect x="440" y="93" width="105" height="56" ry="5" rx="5" style="fill:url(#linearGradientF8FBFEEDF5FCDEEDFAD4E7F8E2E5E9_9888618);" stroke="191970" /></g><g componentSequence="7"><text x="492" y="110" text-anchor="middle" style="font-weight:bold;font-size:10px;stroke:none; fill:#333399"><tspan dy="14" x="492">Resultado</tspan></text></g><g sequence="8"><rect x="690" y="93" width="105" height="56" ry="5" rx="5" style="fill:url(#linearGradientF8FBFEEDF5FCDEEDFAD4E7F8E2E5E9_26505564);" stroke="191970" /></g><g componentSequence="8"><text x="742" y="110" text-anchor="middle" style="font-weight:bold;font-size:10px;stroke:none; fill:#333399"><tspan dy="14" x="742">Conclusão</tspan></text></g><g sequence="9"><ellipse cx="857" cy="121" rx="17" ry="17" stroke-width="3" style="fill:url(#linearGradientFF6666FF9696FFB6B6_27661292);" stroke="993333" /></g><g sequence="17"><polygon points=" 340 100 370 70 400 100 370 130 340 100" style="fill:url(#linearGradientFAFBFCFFFFCC_7943612);" stroke="000000" /></g><g componentSequence="17"><text x="370" y="140" text-anchor="middle" style="font-weight:bold;font-size:10px;stroke:none; fill:#333399"><tspan dy="14" x="370">Atribuiçã</tspan><tspan dy="14" x="370">o</tspan></text></g><g sequence="20"><polygon points=" 250 100 280 70 310 100 280 130 250 100" style="fill:url(#linearGradientFAFBFCFFFFCC_27330986);" stroke="000000" /></g><g componentSequence="20"><text x="280" y="140" text-anchor="middle" style="font-weight:bold;font-size:10px;stroke:none; fill:#333399"><tspan dy="14" x="280">Disposiç</tspan><tspan dy="14" x="280">ão</tspan></text></g><g sequence="24"><polygon points=" 590 94 620 64 650 94 620 124 590 94" style="fill:url(#linearGradientFAFBFCFFFFCC_29068819);" stroke="000000" /></g><g componentSequence="24"><text x="620" y="134" text-anchor="middle" style="font-weight:bold;font-size:10px;stroke:none; fill:#333399"><tspan dy="14" x="620">Resultad</tspan><tspan dy="14" x="620">o</tspan><tspan dy="14" x="620">Eficaz?</tspan></text></g><g componentSequence="14"><text x="827" y="121" style="font-size:10px;font-weight:none;stroke:none; fill:#333399" text-anchor="left" /></g><g componentSequence="16"><text x="92" y="120" style="font-size:10px;font-weight:none;stroke:none; fill:#333399" text-anchor="left" /></g><g componentSequence="19"><text x="430" y="121" style="font-size:10px;font-weight:none;stroke:none; fill:#333399" text-anchor="left" /></g><g componentSequence="21"><text x="237" y="121" style="font-size:10px;font-weight:none;stroke:none; fill:#333399" text-anchor="left" /></g><g componentSequence="22"><text x="335" y="121" style="font-size:10px;font-weight:none;stroke:none; fill:#333399" text-anchor="left" /></g><g componentSequence="23"><text x="533" y="47" style="font-size:10px;font-weight:none;stroke:none; fill:#333399" text-anchor="left" /></g><g componentSequence="25"><text x="577" y="121" style="font-size:10px;font-weight:none;stroke:none; fill:#333399" text-anchor="left" /></g><g componentSequence="26"><text x="680" y="121" style="font-size:10px;font-weight:none;stroke:none; fill:#333399" text-anchor="left" /></g><g componentSequence="27"><text x="389" y="187" style="font-size:10px;font-weight:none;stroke:none; fill:#333399" text-anchor="left" /></g><path style="fill:none; stroke:#000000;stroke-width:1" d="M64.0 120.0 L99.0 120.0" /><polygon style="fill:#000000; stroke:#000000;" points=" 89 115 99 120 89 125 91 120" /><path style="fill:none; stroke:#000000;stroke-width:1" d="M205.0 121.0 L249.0 121.0" /><polygon style="fill:#000000; stroke:#000000;" points=" 239 116 249 121 239 126 241 121" /><path style="fill:none; stroke:#000000;stroke-width:1" d="M627.0 180.0 L628.0 187.0 L394.0 187.0 L153.0 187.0 L153.0 156.0" /><polygon style="fill:#000000; stroke:#000000;" points=" 148 166 153 156 158 166 153 164" /><path style="fill:none; stroke:#000000;stroke-width:1" d="M545.0 121.0 L589.0 121.0" /><polygon style="fill:#000000; stroke:#000000;" points=" 579 116 589 121 579 126 581 121" /><path style="fill:none; stroke:#000000;stroke-width:1" d="M400.0 121.0 L439.0 121.0" /><polygon style="fill:#000000; stroke:#000000;" points=" 429 116 439 121 429 126 431 121" /><path style="fill:none; stroke:#000000;stroke-width:1" d="M795.0 121.0 L839.0 121.0" /><polygon style="fill:#000000; stroke:#000000;" points=" 829 116 839 121 829 126 831 121" /><path style="fill:none; stroke:#000000;stroke-width:1" d="M280.0 69.0 L280.0 47.0 L494.0 47.0 L742.0 47.0 L742.0 92.0" /><polygon style="fill:#000000; stroke:#000000;" points=" 747 82 742 92 737 82 742 84" /><path style="fill:none; stroke:#000000;stroke-width:1" d="M650.0 121.0 L689.0 121.0" /><polygon style="fill:#000000; stroke:#000000;" points=" 679 116 689 121 679 126 681 121" /><path style="fill:none; stroke:#000000;stroke-width:1" d="M310.0 121.0 L339.0 121.0" /><polygon style="fill:#000000; stroke:#000000;" points=" 329 116 339 121 329 126 331 121" /><defs><linearGradient xmlns:xlink="http://www.w3.org/1999/xlink" xlink:href="#linearGradient66FF6696FF96B6FFB6" id="linearGradient66FF6696FF96B6FFB6_7243802" x1="0" y1="103.0" x2="0" y2="138.0" gradientUnits="userSpaceOnUse" xlink:type="simple" xlink:actuate="onLoad" xlink:show="other" /><linearGradient id="linearGradient66FF6696FF96B6FFB6"><stop style="stop-color:#66FF66;stop-opacity:1;" offset="0.0" id="stop66FF66" /><stop style="stop-color:#96FF96;stop-opacity:1;" offset="0.5" id="stop96FF96" /><stop style="stop-color:#B6FFB6;stop-opacity:1;" offset="1.0" id="stopB6FFB6" /></linearGradient><linearGradient xmlns:xlink="http://www.w3.org/1999/xlink" xlink:href="#linearGradientF8FBFEEDF5FCDEEDFAD4E7F8E2E5E9" id="linearGradientF8FBFEEDF5FCDEEDFAD4E7F8E2E5E9_11107175" x1="0" y1="86.0" x2="0" y2="191.0" gradientUnits="userSpaceOnUse" xlink:type="simple" xlink:actuate="onLoad" xlink:show="other" /><linearGradient id="linearGradientF8FBFEEDF5FCDEEDFAD4E7F8E2E5E9"><stop style="stop-color:#F8FBFE;stop-opacity:1;" offset="0.0" id="stopF8FBFE" /><stop style="stop-color:#EDF5FC;stop-opacity:1;" offset="0.25" id="stopEDF5FC" /><stop style="stop-color:#DEEDFA;stop-opacity:1;" offset="0.5" id="stopDEEDFA" /><stop style="stop-color:#D4E7F8;stop-opacity:1;" offset="0.75" id="stopD4E7F8" /><stop style="stop-color:#E2E5E9;stop-opacity:1;" offset="1.0" id="stopE2E5E9" /></linearGradient><linearGradient xmlns:xlink="http://www.w3.org/1999/xlink" xlink:href="#linearGradientF8FBFEEDF5FCDEEDFAD4E7F8E2E5E9" id="linearGradientF8FBFEEDF5FCDEEDFAD4E7F8E2E5E9_9888618" x1="0" y1="93.0" x2="0" y2="198.0" gradientUnits="userSpaceOnUse" xlink:type="simple" xlink:actuate="onLoad" xlink:show="other" /><linearGradient xmlns:xlink="http://www.w3.org/1999/xlink" xlink:href="#linearGradientF8FBFEEDF5FCDEEDFAD4E7F8E2E5E9" id="linearGradientF8FBFEEDF5FCDEEDFAD4E7F8E2E5E9_26505564" x1="0" y1="93.0" x2="0" y2="198.0" gradientUnits="userSpaceOnUse" xlink:type="simple" xlink:actuate="onLoad" xlink:show="other" /><linearGradient xmlns:xlink="http://www.w3.org/1999/xlink" xlink:href="#linearGradientFF6666FF9696FFB6B6" id="linearGradientFF6666FF9696FFB6B6_27661292" x1="0" y1="104.0" x2="0" y2="139.0" gradientUnits="userSpaceOnUse" xlink:type="simple" xlink:actuate="onLoad" xlink:show="other" /><linearGradient id="linearGradientFF6666FF9696FFB6B6"><stop style="stop-color:#FF6666;stop-opacity:1;" offset="0.0" id="stopFF6666" /><stop style="stop-color:#FF9696;stop-opacity:1;" offset="0.5" id="stopFF9696" /><stop style="stop-color:#FFB6B6;stop-opacity:1;" offset="1.0" id="stopFFB6B6" /></linearGradient><linearGradient xmlns:xlink="http://www.w3.org/1999/xlink" xlink:href="#linearGradientFAFBFCFFFFCC" id="linearGradientFAFBFCFFFFCC_7943612" x1="0" y1="70.0" x2="0" y2="130.0" gradientUnits="userSpaceOnUse" xlink:type="simple" xlink:actuate="onLoad" xlink:show="other" /><linearGradient id="linearGradientFAFBFCFFFFCC"><stop style="stop-color:#FAFBFC;stop-opacity:1;" offset="0.0" id="stopFAFBFC" /><stop style="stop-color:#FFFFCC;stop-opacity:1;" offset="1.0" id="stopFFFFCC" /></linearGradient><linearGradient xmlns:xlink="http://www.w3.org/1999/xlink" xlink:href="#linearGradientFAFBFCFFFFCC" id="linearGradientFAFBFCFFFFCC_27330986" x1="0" y1="70.0" x2="0" y2="130.0" gradientUnits="userSpaceOnUse" xlink:type="simple" xlink:actuate="onLoad" xlink:show="other" /><linearGradient xmlns:xlink="http://www.w3.org/1999/xlink" xlink:href="#linearGradientFAFBFCFFFFCC" id="linearGradientFAFBFCFFFFCC_29068819" x1="0" y1="64.0" x2="0" y2="124.0" gradientUnits="userSpaceOnUse" xlink:type="simple" xlink:actuate="onLoad" xlink:show="other" /></defs></svg>
