<?xml version="1.0" encoding="UTF-8"?>
<svg xmlns="http://www.w3.org/2000/svg" style="stroke-dasharray:none; shape-rendering:auto; font-family:'Arial'; text-rendering:auto; fill-opacity:1; color-interpolation:auto; color-rendering:auto; font-size:12; fill:black; stroke:black; image-rendering:auto; stroke-miterlimit:10; stroke-linecap:square; stroke-linejoin:miter; font-style:normal; stroke-width:1; stroke-dashoffset:0; font-weight:normal; stroke-opacity:1;" contentScriptType="text/ecmascript" preserveAspectRatio="xMidYMid meet" zoomAndPan="magnify" version="1.0" contentStyleType="text/css" xml:xlink="http://www.w3.org/1999/xlink" width="923" height="316"><g sequence="1"><ellipse cx="17" cy="201" rx="17" ry="17" stroke-width="1" style="fill:url(#linearGradient66FF6696FF96B6FFB6_20072396);" stroke="336633" /></g><g sequence="4"><rect x="167" y="243" width="106" height="56" ry="5" rx="5" style="fill:url(#linearGradientF8FBFEEDF5FCDEEDFAD4E7F8E2E5E9_32879322);" stroke="191970" /></g><g componentSequence="4"><text x="220" y="260" text-anchor="middle" style="font-weight:bold;font-size:10px;stroke:none; fill:#333399"><tspan dy="14" x="220">Disposição</tspan></text></g><g sequence="5"><rect x="167" y="96" width="106" height="70" ry="5" rx="5" style="fill:url(#linearGradientF8FBFEEDF5FCDEEDFAD4E7F8E2E5E9_30026940);" stroke="191970" /></g><g componentSequence="5"><text x="220" y="111" text-anchor="middle" style="font-weight:bold;font-size:10px;stroke:none; fill:#333399"><tspan dy="14" x="220">Ação</tspan><tspan dy="14" x="220">Emergencial</tspan></text></g><g sequence="6"><rect x="445" y="164" width="106" height="56" ry="5" rx="5" style="fill:url(#linearGradientF8FBFEEDF5FCDEEDFAD4E7F8E2E5E9_13154529);" stroke="191970" /></g><g componentSequence="6"><text x="498" y="181" text-anchor="middle" style="font-weight:bold;font-size:10px;stroke:none; fill:#333399"><tspan dy="14" x="498">Parecer</tspan></text></g><g sequence="7"><polygon points=" 347 179 377 149 407 179 377 209 347 179" style="fill:url(#linearGradientFAFBFCFFFFCC_17662355);" stroke="000000" /></g><path style="fill:none; stroke-width:6; stroke:#000000;" d="M367.0 179.0 L387.0 179.0" /><path style="fill:none; stroke-width:6; stroke:#000000;" d="M377.0 169.0 L377.0 189.0" /><g componentSequence="7"><text x="377" y="212" text-anchor="middle" style="font-weight:bold;font-size:10px;stroke:none; fill:#333399"><tspan dy="14" x="377">União</tspan></text></g><g sequence="10"><ellipse cx="320" cy="130" rx="17" ry="17" stroke-width="1" style="fill:url(#linearGradientFFFF66FFFF96FFFFB6_18254730);" stroke="999900" /></g><g sequence="10"><rect x="310" y="120" width="21" height="21" ry="0" rx="0" style="stroke:#000000; fill:none" /></g><g sequence="10"><path style="fill:none; stroke-width:1; stroke:#000000;" d="M312.0 123.0 L327.0 123.0" /></g><g sequence="10"><path style="fill:none; stroke-width:1; stroke:#000000;" d="M312.0 128.0 L327.0 128.0" /></g><g sequence="10"><path style="fill:none; stroke-width:1; stroke:#000000;" d="M312.0 133.0 L327.0 133.0" /></g><g sequence="10"><path style="fill:none; stroke-width:1; stroke:#000000;" d="M312.0 138.0 L327.0 138.0" /></g><g sequence="15"><rect x="590" y="236" width="106" height="56" ry="5" rx="5" style="fill:url(#linearGradientF8FBFEEDF5FCDEEDFAD4E7F8E2E5E9_20573272);" stroke="191970" /></g><g componentSequence="15"><text x="643" y="253" text-anchor="middle" style="font-weight:bold;font-size:10px;stroke:none; fill:#333399"><tspan dy="14" x="643">Causa Raiz</tspan></text></g><g sequence="16"><ellipse cx="767" cy="263" rx="17" ry="17" stroke-width="1" style="fill:url(#linearGradientFFFF66FFFF96FFFFB6_15157166);" stroke="999900" /></g><g sequence="16"><rect x="757" y="253" width="21" height="21" ry="0" rx="0" style="stroke:#000000; fill:none" /></g><g sequence="16"><path style="fill:none; stroke-width:1; stroke:#000000;" d="M759.0 256.0 L774.0 256.0" /></g><g sequence="16"><path style="fill:none; stroke-width:1; stroke:#000000;" d="M759.0 261.0 L774.0 261.0" /></g><g sequence="16"><path style="fill:none; stroke-width:1; stroke:#000000;" d="M759.0 266.0 L774.0 266.0" /></g><g sequence="16"><path style="fill:none; stroke-width:1; stroke:#000000;" d="M759.0 271.0 L774.0 271.0" /></g><g sequence="18"><rect x="715" y="157" width="106" height="70" ry="5" rx="5" style="fill:url(#linearGradientF8FBFEEDF5FCDEEDFAD4E7F8E2E5E9_30888376);" stroke="191970" /></g><g componentSequence="18"><text x="768" y="172" text-anchor="middle" style="font-weight:bold;font-size:10px;stroke:none; fill:#333399"><tspan dy="14" x="768">Verficação da</tspan><tspan dy="14" x="768">eficacia</tspan></text></g><g sequence="19"><ellipse cx="892" cy="70" rx="17" ry="17" stroke-width="3" style="fill:url(#linearGradientFF6666FF9696FFB6B6_837715);" stroke="993333" /></g><g sequence="25"><polygon points=" 75 188 105 158 135 188 105 218 75 188" style="fill:url(#linearGradientFAFBFCFFFFCC_4040102);" stroke="000000" /></g><path style="fill:none; stroke-width:6; stroke:#000000;" d="M95.0 188.0 L115.0 188.0" /><path style="fill:none; stroke-width:6; stroke:#000000;" d="M105.0 178.0 L105.0 198.0" /><g componentSequence="25"><text x="105" y="221" text-anchor="middle" style="font-weight:bold;font-size:10px;stroke:none; fill:#333399"><tspan dy="14" x="105">Paralelo</tspan></text></g><g sequence="29"><polygon points=" 613 50 643 20 673 50 643 80 613 50" style="fill:url(#linearGradientFAFBFCFFFFCC_11100152);" stroke="000000" /></g><g componentSequence="29"><text x="643" y="90" text-anchor="middle" style="font-weight:bold;font-size:10px;stroke:none; fill:#333399"><tspan dy="14" x="643">Cauza</tspan><tspan dy="14" x="643">Raiz</tspan></text></g><g sequence="35"><polygon points=" 863 172 893 142 923 172 893 202 863 172" style="fill:url(#linearGradientFAFBFCFFFFCC_17599172);" stroke="000000" /></g><g componentSequence="35"><text x="893" y="212" text-anchor="middle" style="font-weight:bold;font-size:10px;stroke:none; fill:#333399"><tspan dy="14" x="893">Verificaç</tspan><tspan dy="14" x="893">ão</tspan></text></g><g componentSequence="11"><text x="243" y="130" style="font-size:10px;font-weight:none;stroke:none; fill:#333399" text-anchor="left" /></g><g componentSequence="12"><text x="296" y="154" style="font-size:10px;font-weight:none;stroke:none; fill:#333399" text-anchor="left" /></g><g componentSequence="13"><text x="265" y="226" style="font-size:10px;font-weight:none;stroke:none; fill:#333399" text-anchor="left" /></g><g componentSequence="14"><text x="381" y="192" style="font-size:10px;font-weight:none;stroke:none; fill:#333399" text-anchor="left" /></g><g componentSequence="21"><text x="678" y="263" style="font-size:10px;font-weight:none;stroke:none; fill:#333399" text-anchor="left" /></g><g componentSequence="22"><text x="722" y="236" style="font-size:10px;font-weight:none;stroke:none; fill:#333399" text-anchor="left" /></g><g componentSequence="26"><text x="10" y="201" style="font-size:10px;font-weight:none;stroke:none; fill:#333399" text-anchor="left" /></g><g componentSequence="27"><text x="106" y="174" style="font-size:10px;font-weight:none;stroke:none; fill:#333399" text-anchor="left" /></g><g componentSequence="28"><text x="109" y="231" style="font-size:10px;font-weight:none;stroke:none; fill:#333399" text-anchor="left" /></g><g componentSequence="31"><text x="598" y="179" style="font-size:10px;font-weight:none;stroke:none; fill:#333399" text-anchor="left" /></g><g componentSequence="32"><text x="213" y="70" style="font-size:10px;font-weight:none;stroke:none; fill:#333399" text-anchor="left" /></g><g componentSequence="33"><text x="729" y="70" style="font-size:10px;font-weight:none;stroke:none; fill:#333399" text-anchor="left" /></g><g componentSequence="34"><text x="527" y="130" style="font-size:10px;font-weight:none;stroke:none; fill:#333399" text-anchor="left" /></g><g componentSequence="36"><text x="797" y="192" style="font-size:10px;font-weight:none;stroke:none; fill:#333399" text-anchor="left" /></g><g componentSequence="37"><text x="847" y="115" style="font-size:10px;font-weight:none;stroke:none; fill:#333399" text-anchor="left" /></g><g componentSequence="38"><text x="747" y="315" style="font-size:10px;font-weight:none;stroke:none; fill:#333399" text-anchor="left" /></g><path style="fill:none; stroke:#000000;stroke-width:1" d="M34.0 201.0 L74.0 201.0" /><polygon style="fill:#000000; stroke:#000000;" points=" 64 196 74 201 64 206 66 201" /><path style="fill:none; stroke:#000000;stroke-width:1" d="M612.0 70.0 L293.0 70.0 L17.0 70.0 L17.0 183.0" /><polygon style="fill:#000000; stroke:#000000;" points=" 22 173 17 183 12 173 17 175" /><path style="fill:none; stroke:#000000;stroke-width:1" d="M273.0 244.0 L346.0 208.0" /><polygon style="fill:#000000; stroke:#000000;" points=" 335 208 346 208 339 217 339 212" /><path style="fill:none; stroke:#000000;stroke-width:1" d="M135.0 220.0 L172.0 242.0" /><polygon style="fill:#000000; stroke:#000000;" points=" 166 233 172 242 161 241 165 238" /><path style="fill:none; stroke:#000000;stroke-width:1" d="M273.0 130.0 L303.0 130.0" /><polygon style="fill:#000000; stroke:#000000;" points=" 293 125 303 130 293 135 295 130" /><path style="fill:none; stroke:#000000;stroke-width:1" d="M135.0 183.0 L166.0 164.0" /><polygon style="fill:#000000; stroke:#000000;" points=" 155 165 166 164 160 173 159 168" /><path style="fill:none; stroke:#000000;stroke-width:1" d="M532.0 163.0 L612.0 96.0" /><polygon style="fill:#000000; stroke:#000000;" points=" 601 99 612 96 608 106 606 101" /><path style="fill:none; stroke:#000000;stroke-width:1" d="M407.0 192.0 L444.0 192.0" /><polygon style="fill:#000000; stroke:#000000;" points=" 434 187 444 192 434 197 436 192" /><path style="fill:none; stroke:#000000;stroke-width:1" d="M332.0 143.0 L346.0 159.0" /><polygon style="fill:#000000; stroke:#000000;" points=" 343 148 346 159 336 155 341 153" /><path style="fill:none; stroke:#000000;stroke-width:1" d="M696.0 263.0 L750.0 263.0" /><polygon style="fill:#000000; stroke:#000000;" points=" 740 258 750 263 740 268 742 263" /><path style="fill:none; stroke:#000000;stroke-width:1" d="M643.0 122.0 L643.0 235.0" /><polygon style="fill:#000000; stroke:#000000;" points=" 648 225 643 235 638 225 643 227" /><path style="fill:none; stroke:#000000;stroke-width:1" d="M893.0 244.0 L893.0 315.0 L770.0 315.0 L642.0 315.0 L642.0 292.0" /><polygon style="fill:#000000; stroke:#000000;" points=" 637 302 642 292 647 302 642 300" /><path style="fill:none; stroke:#000000;stroke-width:1" d="M767.0 246.0 L767.0 227.0" /><polygon style="fill:#000000; stroke:#000000;" points=" 762 237 767 227 772 237 767 235" /><path style="fill:none; stroke:#000000;stroke-width:1" d="M821.0 192.0 L862.0 192.0" /><polygon style="fill:#000000; stroke:#000000;" points=" 852 187 862 192 852 197 854 192" /><path style="fill:none; stroke:#000000;stroke-width:1" d="M673.0 70.0 L875.0 70.0" /><polygon style="fill:#000000; stroke:#000000;" points=" 865 65 875 70 865 75 867 70" /><path style="fill:none; stroke:#000000;stroke-width:1" d="M892.0 141.0 L892.0 87.0" /><polygon style="fill:#000000; stroke:#000000;" points=" 887 97 892 87 897 97 892 95" /><defs><linearGradient xmlns:xlink="http://www.w3.org/1999/xlink" xlink:href="#linearGradient66FF6696FF96B6FFB6" id="linearGradient66FF6696FF96B6FFB6_20072396" x1="0" y1="184.0" x2="0" y2="219.0" gradientUnits="userSpaceOnUse" xlink:type="simple" xlink:actuate="onLoad" xlink:show="other" /><linearGradient id="linearGradient66FF6696FF96B6FFB6"><stop style="stop-color:#66FF66;stop-opacity:1;" offset="0.0" id="stop66FF66" /><stop style="stop-color:#96FF96;stop-opacity:1;" offset="0.5" id="stop96FF96" /><stop style="stop-color:#B6FFB6;stop-opacity:1;" offset="1.0" id="stopB6FFB6" /></linearGradient><linearGradient xmlns:xlink="http://www.w3.org/1999/xlink" xlink:href="#linearGradientF8FBFEEDF5FCDEEDFAD4E7F8E2E5E9" id="linearGradientF8FBFEEDF5FCDEEDFAD4E7F8E2E5E9_32879322" x1="0" y1="243.0" x2="0" y2="349.0" gradientUnits="userSpaceOnUse" xlink:type="simple" xlink:actuate="onLoad" xlink:show="other" /><linearGradient id="linearGradientF8FBFEEDF5FCDEEDFAD4E7F8E2E5E9"><stop style="stop-color:#F8FBFE;stop-opacity:1;" offset="0.0" id="stopF8FBFE" /><stop style="stop-color:#EDF5FC;stop-opacity:1;" offset="0.25" id="stopEDF5FC" /><stop style="stop-color:#DEEDFA;stop-opacity:1;" offset="0.5" id="stopDEEDFA" /><stop style="stop-color:#D4E7F8;stop-opacity:1;" offset="0.75" id="stopD4E7F8" /><stop style="stop-color:#E2E5E9;stop-opacity:1;" offset="1.0" id="stopE2E5E9" /></linearGradient><linearGradient xmlns:xlink="http://www.w3.org/1999/xlink" xlink:href="#linearGradientF8FBFEEDF5FCDEEDFAD4E7F8E2E5E9" id="linearGradientF8FBFEEDF5FCDEEDFAD4E7F8E2E5E9_30026940" x1="0" y1="96.0" x2="0" y2="202.0" gradientUnits="userSpaceOnUse" xlink:type="simple" xlink:actuate="onLoad" xlink:show="other" /><linearGradient xmlns:xlink="http://www.w3.org/1999/xlink" xlink:href="#linearGradientF8FBFEEDF5FCDEEDFAD4E7F8E2E5E9" id="linearGradientF8FBFEEDF5FCDEEDFAD4E7F8E2E5E9_13154529" x1="0" y1="164.0" x2="0" y2="270.0" gradientUnits="userSpaceOnUse" xlink:type="simple" xlink:actuate="onLoad" xlink:show="other" /><linearGradient xmlns:xlink="http://www.w3.org/1999/xlink" xlink:href="#linearGradientFAFBFCFFFFCC" id="linearGradientFAFBFCFFFFCC_17662355" x1="0" y1="149.0" x2="0" y2="209.0" gradientUnits="userSpaceOnUse" xlink:type="simple" xlink:actuate="onLoad" xlink:show="other" /><linearGradient id="linearGradientFAFBFCFFFFCC"><stop style="stop-color:#FAFBFC;stop-opacity:1;" offset="0.0" id="stopFAFBFC" /><stop style="stop-color:#FFFFCC;stop-opacity:1;" offset="1.0" id="stopFFFFCC" /></linearGradient><linearGradient xmlns:xlink="http://www.w3.org/1999/xlink" xlink:href="#linearGradientFFFF66FFFF96FFFFB6" id="linearGradientFFFF66FFFF96FFFFB6_18254730" x1="0" y1="113.0" x2="0" y2="148.0" gradientUnits="userSpaceOnUse" xlink:type="simple" xlink:actuate="onLoad" xlink:show="other" /><linearGradient id="linearGradientFFFF66FFFF96FFFFB6"><stop style="stop-color:#FFFF66;stop-opacity:1;" offset="0.0" id="stopFFFF66" /><stop style="stop-color:#FFFF96;stop-opacity:1;" offset="0.5" id="stopFFFF96" /><stop style="stop-color:#FFFFB6;stop-opacity:1;" offset="1.0" id="stopFFFFB6" /></linearGradient><linearGradient xmlns:xlink="http://www.w3.org/1999/xlink" xlink:href="#linearGradientF8FBFEEDF5FCDEEDFAD4E7F8E2E5E9" id="linearGradientF8FBFEEDF5FCDEEDFAD4E7F8E2E5E9_20573272" x1="0" y1="236.0" x2="0" y2="342.0" gradientUnits="userSpaceOnUse" xlink:type="simple" xlink:actuate="onLoad" xlink:show="other" /><linearGradient xmlns:xlink="http://www.w3.org/1999/xlink" xlink:href="#linearGradientFFFF66FFFF96FFFFB6" id="linearGradientFFFF66FFFF96FFFFB6_15157166" x1="0" y1="246.0" x2="0" y2="281.0" gradientUnits="userSpaceOnUse" xlink:type="simple" xlink:actuate="onLoad" xlink:show="other" /><linearGradient xmlns:xlink="http://www.w3.org/1999/xlink" xlink:href="#linearGradientF8FBFEEDF5FCDEEDFAD4E7F8E2E5E9" id="linearGradientF8FBFEEDF5FCDEEDFAD4E7F8E2E5E9_30888376" x1="0" y1="157.0" x2="0" y2="263.0" gradientUnits="userSpaceOnUse" xlink:type="simple" xlink:actuate="onLoad" xlink:show="other" /><linearGradient xmlns:xlink="http://www.w3.org/1999/xlink" xlink:href="#linearGradientFF6666FF9696FFB6B6" id="linearGradientFF6666FF9696FFB6B6_837715" x1="0" y1="53.0" x2="0" y2="88.0" gradientUnits="userSpaceOnUse" xlink:type="simple" xlink:actuate="onLoad" xlink:show="other" /><linearGradient id="linearGradientFF6666FF9696FFB6B6"><stop style="stop-color:#FF6666;stop-opacity:1;" offset="0.0" id="stopFF6666" /><stop style="stop-color:#FF9696;stop-opacity:1;" offset="0.5" id="stopFF9696" /><stop style="stop-color:#FFB6B6;stop-opacity:1;" offset="1.0" id="stopFFB6B6" /></linearGradient><linearGradient xmlns:xlink="http://www.w3.org/1999/xlink" xlink:href="#linearGradientFAFBFCFFFFCC" id="linearGradientFAFBFCFFFFCC_4040102" x1="0" y1="158.0" x2="0" y2="218.0" gradientUnits="userSpaceOnUse" xlink:type="simple" xlink:actuate="onLoad" xlink:show="other" /><linearGradient xmlns:xlink="http://www.w3.org/1999/xlink" xlink:href="#linearGradientFAFBFCFFFFCC" id="linearGradientFAFBFCFFFFCC_11100152" x1="0" y1="20.0" x2="0" y2="80.0" gradientUnits="userSpaceOnUse" xlink:type="simple" xlink:actuate="onLoad" xlink:show="other" /><linearGradient xmlns:xlink="http://www.w3.org/1999/xlink" xlink:href="#linearGradientFAFBFCFFFFCC" id="linearGradientFAFBFCFFFFCC_17599172" x1="0" y1="142.0" x2="0" y2="202.0" gradientUnits="userSpaceOnUse" xlink:type="simple" xlink:actuate="onLoad" xlink:show="other" /></defs></svg>
