<?xml version="1.0" encoding="UTF-8"?>
<svg xmlns="http://www.w3.org/2000/svg" style="stroke-dasharray:none; shape-rendering:auto; font-family:'Arial'; text-rendering:auto; fill-opacity:1; color-interpolation:auto; color-rendering:auto; font-size:12; fill:black; stroke:black; image-rendering:auto; stroke-miterlimit:10; stroke-linecap:square; stroke-linejoin:miter; font-style:normal; stroke-width:1; stroke-dashoffset:0; font-weight:normal; stroke-opacity:1;" contentScriptType="text/ecmascript" preserveAspectRatio="xMidYMid meet" zoomAndPan="magnify" version="1.0" contentStyleType="text/css" xml:xlink="http://www.w3.org/1999/xlink" width="889" height="249"><g sequence="1"><ellipse cx="17" cy="128" rx="17" ry="17" stroke-width="1" style="fill:url(#linearGradient66FF6696FF96B6FFB6_24582591);" stroke="336633" /></g><g sequence="4"><rect x="167" y="170" width="106" height="56" ry="5" rx="5" style="fill:url(#linearGradientF8FBFEEDF5FCDEEDFAD4E7F8E2E5E9_3079940);" stroke="191970" /></g><g componentSequence="4"><text x="220" y="187" text-anchor="middle" style="font-weight:bold;font-size:10px;stroke:none; fill:#333399"><tspan dy="14" x="220">Disposição</tspan></text></g><g sequence="5"><rect x="167" y="23" width="106" height="70" ry="5" rx="5" style="fill:url(#linearGradientF8FBFEEDF5FCDEEDFAD4E7F8E2E5E9_18564033);" stroke="191970" /></g><g componentSequence="5"><text x="220" y="38" text-anchor="middle" style="font-weight:bold;font-size:10px;stroke:none; fill:#333399"><tspan dy="14" x="220">Ação</tspan><tspan dy="14" x="220">Emergencial</tspan></text></g><g sequence="6"><rect x="445" y="170" width="106" height="56" ry="5" rx="5" style="fill:url(#linearGradientF8FBFEEDF5FCDEEDFAD4E7F8E2E5E9_14643384);" stroke="191970" /></g><g componentSequence="6"><text x="498" y="187" text-anchor="middle" style="font-weight:bold;font-size:10px;stroke:none; fill:#333399"><tspan dy="14" x="498">Parecer</tspan></text></g><g sequence="7"><polygon points=" 335 184 365 154 395 184 365 214 335 184" style="fill:url(#linearGradientFAFBFCFFFFCC_26223421);" stroke="000000" /></g><path style="fill:none; stroke-width:6; stroke:#000000;" d="M355.0 184.0 L375.0 184.0" /><path style="fill:none; stroke-width:6; stroke:#000000;" d="M365.0 174.0 L365.0 194.0" /><g componentSequence="7"><text x="365" y="217" text-anchor="middle" style="font-weight:bold;font-size:10px;stroke:none; fill:#333399"><tspan dy="14" x="365">União</tspan></text></g><g sequence="10"><ellipse cx="364" cy="57" rx="17" ry="17" stroke-width="1" style="fill:url(#linearGradientFFFF66FFFF96FFFFB6_7509752);" stroke="999900" /></g><g sequence="10"><rect x="354" y="47" width="21" height="21" ry="0" rx="0" style="stroke:#000000; fill:none" /></g><g sequence="10"><path style="fill:none; stroke-width:1; stroke:#000000;" d="M356.0 50.0 L371.0 50.0" /></g><g sequence="10"><path style="fill:none; stroke-width:1; stroke:#000000;" d="M356.0 55.0 L371.0 55.0" /></g><g sequence="10"><path style="fill:none; stroke-width:1; stroke:#000000;" d="M356.0 60.0 L371.0 60.0" /></g><g sequence="10"><path style="fill:none; stroke-width:1; stroke:#000000;" d="M356.0 65.0 L371.0 65.0" /></g><g sequence="15"><rect x="590" y="163" width="106" height="56" ry="5" rx="5" style="fill:url(#linearGradientF8FBFEEDF5FCDEEDFAD4E7F8E2E5E9_13225728);" stroke="191970" /></g><g componentSequence="15"><text x="643" y="180" text-anchor="middle" style="font-weight:bold;font-size:10px;stroke:none; fill:#333399"><tspan dy="14" x="643">Causa Raiz</tspan></text></g><g sequence="16"><ellipse cx="642" cy="73" rx="17" ry="17" stroke-width="1" style="fill:url(#linearGradientFFFF66FFFF96FFFFB6_31542609);" stroke="999900" /></g><g sequence="16"><rect x="632" y="63" width="21" height="21" ry="0" rx="0" style="stroke:#000000; fill:none" /></g><g sequence="16"><path style="fill:none; stroke-width:1; stroke:#000000;" d="M634.0 66.0 L649.0 66.0" /></g><g sequence="16"><path style="fill:none; stroke-width:1; stroke:#000000;" d="M634.0 71.0 L649.0 71.0" /></g><g sequence="16"><path style="fill:none; stroke-width:1; stroke:#000000;" d="M634.0 76.0 L649.0 76.0" /></g><g sequence="16"><path style="fill:none; stroke-width:1; stroke:#000000;" d="M634.0 81.0 L649.0 81.0" /></g><g sequence="18"><rect x="706" y="39" width="106" height="70" ry="5" rx="5" style="fill:url(#linearGradientF8FBFEEDF5FCDEEDFAD4E7F8E2E5E9_20456015);" stroke="191970" /></g><g componentSequence="18"><text x="759" y="54" text-anchor="middle" style="font-weight:bold;font-size:10px;stroke:none; fill:#333399"><tspan dy="14" x="759">Verficação da</tspan><tspan dy="14" x="759">eficacia</tspan></text></g><g sequence="19"><ellipse cx="871" cy="127" rx="17" ry="17" stroke-width="3" style="fill:url(#linearGradientFF6666FF9696FFB6B6_28422150);" stroke="993333" /></g><g sequence="29"><polygon points=" 468 37 498 7 528 37 498 67 468 37" style="fill:url(#linearGradientFAFBFCFFFFCC_27575999);" stroke="000000" /></g><g componentSequence="29"><text x="498" y="77" text-anchor="middle" style="font-weight:bold;font-size:10px;stroke:none; fill:#333399"><tspan dy="14" x="498">Cauza</tspan><tspan dy="14" x="498">Raiz</tspan></text></g><g sequence="35"><polygon points=" 729 177 759 147 789 177 759 207 729 177" style="fill:url(#linearGradientFAFBFCFFFFCC_14980319);" stroke="000000" /></g><g componentSequence="35"><text x="759" y="217" text-anchor="middle" style="font-weight:bold;font-size:10px;stroke:none; fill:#333399"><tspan dy="14" x="759">Verificaç</tspan><tspan dy="14" x="759">ão</tspan></text></g><g sequence="39"><polygon points=" 75 101 105 71 135 101 105 131 75 101" style="fill:url(#linearGradientFAFBFCFFFFCC_57686);" stroke="000000" /></g><ellipse cx="105" cy="101" rx="17" ry="17" stroke-width="1" style="fill:url(#linearGradientFAFBFCFFFFCC_16731280);" stroke="000000" /><g componentSequence="39"><text x="105" y="141" text-anchor="middle" style="font-weight:bold;font-size:10px;stroke:none; fill:#333399"><tspan dy="14" x="105">Atividad</tspan><tspan dy="14" x="105">es</tspan><tspan dy="14" x="105">paralelas</tspan></text></g><g componentSequence="11"><text x="265" y="57" style="font-size:10px;font-weight:none;stroke:none; fill:#333399" text-anchor="left" /></g><g componentSequence="12"><text x="319" y="114" style="font-size:10px;font-weight:none;stroke:none; fill:#333399" text-anchor="left" /></g><g componentSequence="13"><text x="259" y="198" style="font-size:10px;font-weight:none;stroke:none; fill:#333399" text-anchor="left" /></g><g componentSequence="14"><text x="375" y="198" style="font-size:10px;font-weight:none;stroke:none; fill:#333399" text-anchor="left" /></g><g componentSequence="21"><text x="597" y="127" style="font-size:10px;font-weight:none;stroke:none; fill:#333399" text-anchor="left" /></g><g componentSequence="22"><text x="638" y="73" style="font-size:10px;font-weight:none;stroke:none; fill:#333399" text-anchor="left" /></g><g componentSequence="31"><text x="525" y="124" style="font-size:10px;font-weight:none;stroke:none; fill:#333399" text-anchor="left" /></g><g componentSequence="32"><text x="151" y="12" style="font-size:10px;font-weight:none;stroke:none; fill:#333399" text-anchor="left" /></g><g componentSequence="33"><text x="700" y="11" style="font-size:10px;font-weight:none;stroke:none; fill:#333399" text-anchor="left" /></g><g componentSequence="34"><text x="453" y="139" style="font-size:10px;font-weight:none;stroke:none; fill:#333399" text-anchor="left" /></g><g componentSequence="36"><text x="714" y="128" style="font-size:10px;font-weight:none;stroke:none; fill:#333399" text-anchor="left" /></g><g componentSequence="37"><text x="811" y="197" style="font-size:10px;font-weight:none;stroke:none; fill:#333399" text-anchor="left" /></g><g componentSequence="38"><text x="667" y="192" style="font-size:10px;font-weight:none;stroke:none; fill:#333399" text-anchor="left" /></g><g componentSequence="40"><text x="10" y="128" style="font-size:10px;font-weight:none;stroke:none; fill:#333399" text-anchor="left" /></g><g componentSequence="41"><text x="106" y="101" style="font-size:10px;font-weight:none;stroke:none; fill:#333399" text-anchor="left" /></g><g componentSequence="42"><text x="109" y="158" style="font-size:10px;font-weight:none;stroke:none; fill:#333399" text-anchor="left" /></g><path style="fill:none; stroke:#000000;stroke-width:1" d="M467.0 42.0 L444.0 30.0 L399.0 12.0 L297.0 12.0 L17.0 12.0 L17.0 110.0" /><polygon style="fill:#000000; stroke:#000000;" points=" 22 100 17 110 12 100 17 102" /><path style="fill:none; stroke:#000000;stroke-width:1" d="M273.0 198.0 L334.0 198.0" /><polygon style="fill:#000000; stroke:#000000;" points=" 324 193 334 198 324 203 326 198" /><path style="fill:none; stroke:#000000;stroke-width:1" d="M273.0 57.0 L347.0 57.0" /><polygon style="fill:#000000; stroke:#000000;" points=" 337 52 347 57 337 62 339 57" /><path style="fill:none; stroke:#000000;stroke-width:1" d="M498.0 169.0 L498.0 109.0" /><polygon style="fill:#000000; stroke:#000000;" points=" 493 119 498 109 503 119 498 117" /><path style="fill:none; stroke:#000000;stroke-width:1" d="M395.0 198.0 L444.0 198.0" /><polygon style="fill:#000000; stroke:#000000;" points=" 434 193 444 198 434 203 436 198" /><path style="fill:none; stroke:#000000;stroke-width:1" d="M364.0 74.0 L364.0 153.0" /><polygon style="fill:#000000; stroke:#000000;" points=" 369 143 364 153 359 143 364 145" /><path style="fill:none; stroke:#000000;stroke-width:1" d="M642.0 162.0 L642.0 90.0" /><polygon style="fill:#000000; stroke:#000000;" points=" 637 100 642 90 647 100 642 98" /><path style="fill:none; stroke:#000000;stroke-width:1" d="M528.0 85.0 L611.0 162.0" /><polygon style="fill:#000000; stroke:#000000;" points=" 607 152 611 162 600 159 605 157" /><path style="fill:none; stroke:#000000;stroke-width:1" d="M728.0 192.0 L728.0 192.0 L717.0 192.0 L696.0 192.0" /><polygon style="fill:#000000; stroke:#000000;" points=" 706 197 696 192 706 187 704 192" /><path style="fill:none; stroke:#000000;stroke-width:1" d="M659.0 73.0 L705.0 73.0" /><polygon style="fill:#000000; stroke:#000000;" points=" 695 68 705 73 695 78 697 73" /><path style="fill:none; stroke:#000000;stroke-width:1" d="M759.0 109.0 L759.0 146.0" /><polygon style="fill:#000000; stroke:#000000;" points=" 764 136 759 146 754 136 759 138" /><path style="fill:none; stroke:#000000;stroke-width:1" d="M528.0 43.0 L598.0 11.0 L699.0 11.0 L871.0 11.0 L871.0 109.0" /><polygon style="fill:#000000; stroke:#000000;" points=" 876 99 871 109 866 99 871 101" /><path style="fill:none; stroke:#000000;stroke-width:1" d="M789.0 197.0 L871.0 197.0 L871.0 145.0" /><polygon style="fill:#000000; stroke:#000000;" points=" 866 155 871 145 876 155 871 153" /><path style="fill:none; stroke:#000000;stroke-width:1" d="M34.0 128.0 L74.0 128.0" /><polygon style="fill:#000000; stroke:#000000;" points=" 64 123 74 128 64 133 66 128" /><path style="fill:none; stroke:#000000;stroke-width:1" d="M135.0 110.0 L166.0 91.0" /><polygon style="fill:#000000; stroke:#000000;" points=" 155 92 166 91 160 100 159 95" /><path style="fill:none; stroke:#000000;stroke-width:1" d="M135.0 147.0 L172.0 169.0" /><polygon style="fill:#000000; stroke:#000000;" points=" 166 160 172 169 161 168 165 165" /><defs><linearGradient xmlns:xlink="http://www.w3.org/1999/xlink" xlink:href="#linearGradient66FF6696FF96B6FFB6" id="linearGradient66FF6696FF96B6FFB6_24582591" x1="0" y1="111.0" x2="0" y2="146.0" gradientUnits="userSpaceOnUse" xlink:type="simple" xlink:actuate="onLoad" xlink:show="other" /><linearGradient id="linearGradient66FF6696FF96B6FFB6"><stop style="stop-color:#66FF66;stop-opacity:1;" offset="0.0" id="stop66FF66" /><stop style="stop-color:#96FF96;stop-opacity:1;" offset="0.5" id="stop96FF96" /><stop style="stop-color:#B6FFB6;stop-opacity:1;" offset="1.0" id="stopB6FFB6" /></linearGradient><linearGradient xmlns:xlink="http://www.w3.org/1999/xlink" xlink:href="#linearGradientF8FBFEEDF5FCDEEDFAD4E7F8E2E5E9" id="linearGradientF8FBFEEDF5FCDEEDFAD4E7F8E2E5E9_3079940" x1="0" y1="170.0" x2="0" y2="276.0" gradientUnits="userSpaceOnUse" xlink:type="simple" xlink:actuate="onLoad" xlink:show="other" /><linearGradient id="linearGradientF8FBFEEDF5FCDEEDFAD4E7F8E2E5E9"><stop style="stop-color:#F8FBFE;stop-opacity:1;" offset="0.0" id="stopF8FBFE" /><stop style="stop-color:#EDF5FC;stop-opacity:1;" offset="0.25" id="stopEDF5FC" /><stop style="stop-color:#DEEDFA;stop-opacity:1;" offset="0.5" id="stopDEEDFA" /><stop style="stop-color:#D4E7F8;stop-opacity:1;" offset="0.75" id="stopD4E7F8" /><stop style="stop-color:#E2E5E9;stop-opacity:1;" offset="1.0" id="stopE2E5E9" /></linearGradient><linearGradient xmlns:xlink="http://www.w3.org/1999/xlink" xlink:href="#linearGradientF8FBFEEDF5FCDEEDFAD4E7F8E2E5E9" id="linearGradientF8FBFEEDF5FCDEEDFAD4E7F8E2E5E9_18564033" x1="0" y1="23.0" x2="0" y2="129.0" gradientUnits="userSpaceOnUse" xlink:type="simple" xlink:actuate="onLoad" xlink:show="other" /><linearGradient xmlns:xlink="http://www.w3.org/1999/xlink" xlink:href="#linearGradientF8FBFEEDF5FCDEEDFAD4E7F8E2E5E9" id="linearGradientF8FBFEEDF5FCDEEDFAD4E7F8E2E5E9_14643384" x1="0" y1="170.0" x2="0" y2="276.0" gradientUnits="userSpaceOnUse" xlink:type="simple" xlink:actuate="onLoad" xlink:show="other" /><linearGradient xmlns:xlink="http://www.w3.org/1999/xlink" xlink:href="#linearGradientFAFBFCFFFFCC" id="linearGradientFAFBFCFFFFCC_26223421" x1="0" y1="154.0" x2="0" y2="214.0" gradientUnits="userSpaceOnUse" xlink:type="simple" xlink:actuate="onLoad" xlink:show="other" /><linearGradient id="linearGradientFAFBFCFFFFCC"><stop style="stop-color:#FAFBFC;stop-opacity:1;" offset="0.0" id="stopFAFBFC" /><stop style="stop-color:#FFFFCC;stop-opacity:1;" offset="1.0" id="stopFFFFCC" /></linearGradient><linearGradient xmlns:xlink="http://www.w3.org/1999/xlink" xlink:href="#linearGradientFFFF66FFFF96FFFFB6" id="linearGradientFFFF66FFFF96FFFFB6_7509752" x1="0" y1="40.0" x2="0" y2="75.0" gradientUnits="userSpaceOnUse" xlink:type="simple" xlink:actuate="onLoad" xlink:show="other" /><linearGradient id="linearGradientFFFF66FFFF96FFFFB6"><stop style="stop-color:#FFFF66;stop-opacity:1;" offset="0.0" id="stopFFFF66" /><stop style="stop-color:#FFFF96;stop-opacity:1;" offset="0.5" id="stopFFFF96" /><stop style="stop-color:#FFFFB6;stop-opacity:1;" offset="1.0" id="stopFFFFB6" /></linearGradient><linearGradient xmlns:xlink="http://www.w3.org/1999/xlink" xlink:href="#linearGradientF8FBFEEDF5FCDEEDFAD4E7F8E2E5E9" id="linearGradientF8FBFEEDF5FCDEEDFAD4E7F8E2E5E9_13225728" x1="0" y1="163.0" x2="0" y2="269.0" gradientUnits="userSpaceOnUse" xlink:type="simple" xlink:actuate="onLoad" xlink:show="other" /><linearGradient xmlns:xlink="http://www.w3.org/1999/xlink" xlink:href="#linearGradientFFFF66FFFF96FFFFB6" id="linearGradientFFFF66FFFF96FFFFB6_31542609" x1="0" y1="56.0" x2="0" y2="91.0" gradientUnits="userSpaceOnUse" xlink:type="simple" xlink:actuate="onLoad" xlink:show="other" /><linearGradient xmlns:xlink="http://www.w3.org/1999/xlink" xlink:href="#linearGradientF8FBFEEDF5FCDEEDFAD4E7F8E2E5E9" id="linearGradientF8FBFEEDF5FCDEEDFAD4E7F8E2E5E9_20456015" x1="0" y1="39.0" x2="0" y2="145.0" gradientUnits="userSpaceOnUse" xlink:type="simple" xlink:actuate="onLoad" xlink:show="other" /><linearGradient xmlns:xlink="http://www.w3.org/1999/xlink" xlink:href="#linearGradientFF6666FF9696FFB6B6" id="linearGradientFF6666FF9696FFB6B6_28422150" x1="0" y1="110.0" x2="0" y2="145.0" gradientUnits="userSpaceOnUse" xlink:type="simple" xlink:actuate="onLoad" xlink:show="other" /><linearGradient id="linearGradientFF6666FF9696FFB6B6"><stop style="stop-color:#FF6666;stop-opacity:1;" offset="0.0" id="stopFF6666" /><stop style="stop-color:#FF9696;stop-opacity:1;" offset="0.5" id="stopFF9696" /><stop style="stop-color:#FFB6B6;stop-opacity:1;" offset="1.0" id="stopFFB6B6" /></linearGradient><linearGradient xmlns:xlink="http://www.w3.org/1999/xlink" xlink:href="#linearGradientFAFBFCFFFFCC" id="linearGradientFAFBFCFFFFCC_27575999" x1="0" y1="7.0" x2="0" y2="67.0" gradientUnits="userSpaceOnUse" xlink:type="simple" xlink:actuate="onLoad" xlink:show="other" /><linearGradient xmlns:xlink="http://www.w3.org/1999/xlink" xlink:href="#linearGradientFAFBFCFFFFCC" id="linearGradientFAFBFCFFFFCC_14980319" x1="0" y1="147.0" x2="0" y2="207.0" gradientUnits="userSpaceOnUse" xlink:type="simple" xlink:actuate="onLoad" xlink:show="other" /><linearGradient xmlns:xlink="http://www.w3.org/1999/xlink" xlink:href="#linearGradientFAFBFCFFFFCC" id="linearGradientFAFBFCFFFFCC_57686" x1="0" y1="71.0" x2="0" y2="131.0" gradientUnits="userSpaceOnUse" xlink:type="simple" xlink:actuate="onLoad" xlink:show="other" /><linearGradient xmlns:xlink="http://www.w3.org/1999/xlink" xlink:href="#linearGradientFAFBFCFFFFCC" id="linearGradientFAFBFCFFFFCC_16731280" x1="0" y1="84.0" x2="0" y2="119.0" gradientUnits="userSpaceOnUse" xlink:type="simple" xlink:actuate="onLoad" xlink:show="other" /></defs></svg>
