<?xml version="1.0" encoding="UTF-8"?>
<svg xmlns="http://www.w3.org/2000/svg" style="stroke-dasharray:none; shape-rendering:auto; font-family:'Arial'; text-rendering:auto; fill-opacity:1; color-interpolation:auto; color-rendering:auto; font-size:12; fill:black; stroke:black; image-rendering:auto; stroke-miterlimit:10; stroke-linecap:square; stroke-linejoin:miter; font-style:normal; stroke-width:1; stroke-dashoffset:0; font-weight:normal; stroke-opacity:1;" contentScriptType="text/ecmascript" preserveAspectRatio="xMidYMid meet" zoomAndPan="magnify" version="1.0" contentStyleType="text/css" xml:xlink="http://www.w3.org/1999/xlink" width="1315" height="302"><g sequence="1"><ellipse cx="117" cy="177" rx="17" ry="17" stroke-width="1" style="fill:url(#linearGradient66FF6696FF96B6FFB6_9470845);" stroke="336633" /></g><g sequence="2"><rect x="190" y="150" width="105" height="56" ry="5" rx="5" style="fill:url(#linearGradientF8FBFEEDF5FCDEEDFAD4E7F8E2E5E9_5726623);" stroke="191970" /></g><g componentSequence="2"><text x="242" y="167" text-anchor="middle" style="font-weight:bold;font-size:10px;stroke:none; fill:#333399"><tspan dy="14" x="242">Pré-análise</tspan></text></g><g sequence="4"><polygon points=" 350 150 380 120 410 150 380 180 350 150" style="fill:url(#linearGradientFAFBFCFFFFCC_6875149);" stroke="000000" /></g><g componentSequence="4"><text x="380" y="190" text-anchor="middle" style="font-weight:bold;font-size:10px;stroke:none; fill:#333399"><tspan dy="14" x="380">Decisão</tspan><tspan dy="14" x="380">pré</tspan><tspan dy="14" x="380">análise</tspan></text></g><g sequence="6"><rect x="487" y="150" width="105" height="56" ry="5" rx="5" style="fill:url(#linearGradientF8FBFEEDF5FCDEEDFAD4E7F8E2E5E9_23751588);" stroke="191970" /></g><g componentSequence="6"><text x="539" y="167" text-anchor="middle" style="font-weight:bold;font-size:10px;stroke:none; fill:#333399"><tspan dy="14" x="539">Análise crítica</tspan></text></g><g sequence="9"><polygon points=" 650 158 680 128 710 158 680 188 650 158" style="fill:url(#linearGradientFAFBFCFFFFCC_25267935);" stroke="000000" /></g><g componentSequence="9"><text x="680" y="198" text-anchor="middle" style="font-weight:bold;font-size:10px;stroke:none; fill:#333399"><tspan dy="14" x="680">Decisão</tspan><tspan dy="14" x="680">Analise</tspan></text></g><g sequence="12"><rect x="780" y="143" width="105" height="70" ry="5" rx="5" style="fill:url(#linearGradientF8FBFEEDF5FCDEEDFAD4E7F8E2E5E9_738729);" stroke="191970" /></g><g componentSequence="12"><text x="832" y="158" text-anchor="middle" style="font-weight:bold;font-size:10px;stroke:none; fill:#333399"><tspan dy="14" x="832">Ações</tspan><tspan dy="14" x="832">necessárias</tspan></text></g><g sequence="14"><ellipse cx="957" cy="177" rx="17" ry="17" stroke-width="1" style="fill:url(#linearGradientFFFF66FFFF96FFFFB6_17497701);" stroke="999900" /></g><g sequence="14"><rect x="947" y="167" width="21" height="21" ry="0" rx="0" style="stroke:#000000; fill:none" /></g><g sequence="14"><path style="fill:none; stroke-width:1; stroke:#000000;" d="M949.0 170.0 L964.0 170.0" /></g><g sequence="14"><path style="fill:none; stroke-width:1; stroke:#000000;" d="M949.0 175.0 L964.0 175.0" /></g><g sequence="14"><path style="fill:none; stroke-width:1; stroke:#000000;" d="M949.0 180.0 L964.0 180.0" /></g><g sequence="14"><path style="fill:none; stroke-width:1; stroke:#000000;" d="M949.0 185.0 L964.0 185.0" /></g><g sequence="16"><rect x="1010" y="143" width="105" height="70" ry="5" rx="5" style="fill:url(#linearGradientF8FBFEEDF5FCDEEDFAD4E7F8E2E5E9_21337323);" stroke="191970" /></g><g componentSequence="16"><text x="1062" y="158" text-anchor="middle" style="font-weight:bold;font-size:10px;stroke:none; fill:#333399"><tspan dy="14" x="1062">Análise da</tspan><tspan dy="14" x="1062">Eficácia</tspan></text></g><g sequence="18"><ellipse cx="1297" cy="178" rx="17" ry="17" stroke-width="3" style="fill:url(#linearGradientFF6666FF9696FFB6B6_16059434);" stroke="993333" /></g><g sequence="21"><polygon points=" 1160 150 1190 120 1220 150 1190 180 1160 150" style="fill:url(#linearGradientFAFBFCFFFFCC_1259024);" stroke="000000" /></g><g componentSequence="21"><text x="1190" y="190" text-anchor="middle" style="font-weight:bold;font-size:10px;stroke:none; fill:#333399"><tspan dy="14" x="1190">Implemen</tspan><tspan dy="14" x="1190">tação</tspan><tspan dy="14" x="1190">OK</tspan></text></g><rect x="905" y="219" width="105" height="69" ry="5" rx="5" style="stroke:none; fill:#FFFFE0" /><g componentSequence="26"><text x="915" y="242" text-anchor="left" style="font-weight:bold;font-size:10px;stroke:none; fill:#000000"><tspan dy="14" x="915">Aguardar</tspan><tspan dy="14" x="915">execução das</tspan><tspan dy="14" x="915">Sub-atividades</tspan></text></g><path style="fill:none; stroke-width:1; stroke:#000000;" d="M925.0 219.0 L905.0 219.0 L905.0 288.0 L925.0 288.0" /><g componentSequence="3"><text x="172" y="177" style="font-size:10px;font-weight:none;stroke:none; fill:#333399" text-anchor="left" /></g><g componentSequence="5"><text x="332" y="178" style="font-size:10px;font-weight:none;stroke:none; fill:#333399" text-anchor="left" /></g><g componentSequence="7"><text x="430" y="178" style="font-size:10px;font-weight:none;stroke:none; fill:#333399" text-anchor="left"><tspan dy="14" x="430">Seguir</tspan></text></g><g componentSequence="8"><text x="320" y="98" style="font-size:10px;font-weight:none;stroke:none; fill:#333399" text-anchor="left"><tspan dy="14" x="320">Devolver</tspan></text></g><g componentSequence="10"><text x="631" y="178" style="font-size:10px;font-weight:none;stroke:none; fill:#333399" text-anchor="left" /></g><g componentSequence="11"><text x="620" y="240" style="font-size:10px;font-weight:none;stroke:none; fill:#333399" text-anchor="left"><tspan dy="14" x="620">Devolver</tspan></text></g><g componentSequence="13"><text x="709" y="178" style="font-size:10px;font-weight:none;stroke:none; fill:#333399" text-anchor="left"><tspan dy="14" x="709">Seguir</tspan></text></g><g componentSequence="15"><text x="922" y="177" style="font-size:10px;font-weight:none;stroke:none; fill:#333399" text-anchor="left" /></g><g componentSequence="17"><text x="1002" y="177" style="font-size:10px;font-weight:none;stroke:none; fill:#333399" text-anchor="left" /></g><g componentSequence="20"><text x="740" y="98" style="font-size:10px;font-weight:none;stroke:none; fill:#333399" text-anchor="left"><tspan dy="14" x="740">Encerrar</tspan></text></g><g componentSequence="22"><text x="1147" y="178" style="font-size:10px;font-weight:none;stroke:none; fill:#333399" text-anchor="left" /></g><g componentSequence="23"><text x="1230" y="161" style="font-size:10px;font-weight:none;stroke:none; fill:#333399" text-anchor="left"><tspan dy="14" x="1230">Sim</tspan></text></g><g componentSequence="24"><text x="1137" y="280" style="font-size:10px;font-weight:none;stroke:none; fill:#333399" text-anchor="left"><tspan dy="14" x="1137">Não</tspan></text></g><g componentSequence="27"><text x="967" y="207" style="font-size:10px;font-weight:none;stroke:none; fill:#333399" text-anchor="left" /></g><path style="fill:none; stroke:#000000;stroke-width:1" d="M134.0 177.0 L189.0 177.0" /><polygon style="fill:#000000; stroke:#000000;" points=" 179 172 189 177 179 182 181 177" /><path style="fill:none; stroke:#000000;stroke-width:1" d="M378.0 119.0 L378.0 98.0 L239.0 98.0 L117.0 98.0 L117.0 159.0" /><polygon style="fill:#000000; stroke:#000000;" points=" 122 149 117 159 112 149 117 151" /><path style="fill:none; stroke:#000000;stroke-width:1" d="M679.0 230.0 L679.0 256.0 L384.0 256.0 L117.0 256.0 L117.0 195.0" /><polygon style="fill:#000000; stroke:#000000;" points=" 112 205 117 195 122 205 117 203" /><path style="fill:none; stroke:#000000;stroke-width:1" d="M295.0 178.0 L349.0 178.0" /><polygon style="fill:#000000; stroke:#000000;" points=" 339 173 349 178 339 183 341 178" /><path style="fill:none; stroke:#000000;stroke-width:1" d="M410.0 178.0 L486.0 178.0" /><polygon style="fill:#000000; stroke:#000000;" points=" 476 173 486 178 476 183 478 178" /><path style="fill:none; stroke:#000000;stroke-width:1" d="M592.0 178.0 L649.0 178.0" /><polygon style="fill:#000000; stroke:#000000;" points=" 639 173 649 178 639 183 641 178" /><path style="fill:none; stroke:#000000;stroke-width:1" d="M710.0 178.0 L779.0 178.0" /><polygon style="fill:#000000; stroke:#000000;" points=" 769 173 779 178 769 183 771 178" /><path style="fill:none; stroke:#000000;stroke-width:1" d="M679.0 127.0 L678.0 100.0 L945.0 100.0 L1297.0 100.0 L1297.0 160.0" /><polygon style="fill:#000000; stroke:#000000;" points=" 1302 150 1297 160 1292 150 1297 152" /><path style="fill:none; stroke:#000000;stroke-width:1" d="M885.0 177.0 L940.0 177.0" /><polygon style="fill:#000000; stroke:#000000;" points=" 930 172 940 177 930 182 932 177" /><path style="fill:none; stroke:#000000;stroke-width:1" d="M974.0 177.0 L1009.0 177.0" /><polygon style="fill:#000000; stroke:#000000;" points=" 999 172 1009 177 999 182 1001 177" /><path style="fill:none; stroke:#000000;stroke-width:1" d="M1115.0 178.0 L1159.0 178.0" /><polygon style="fill:#000000; stroke:#000000;" points=" 1149 173 1159 178 1149 183 1151 178" /><path style="fill:none; stroke:#000000;stroke-width:1" d="M1220.0 178.0 L1279.0 178.0" /><polygon style="fill:#000000; stroke:#000000;" points=" 1269 173 1279 178 1269 183 1271 178" /><path style="fill:none; stroke:#000000;stroke-width:1" d="M1190.0 236.0 L1190.0 301.0 L654.0 301.0 L117.0 301.0 L117.0 195.0" /><polygon style="fill:#000000; stroke:#000000;" points=" 112 205 117 195 122 205 117 203" /><path style="fill:none; stroke:#000000;stroke-dasharray:2" d="M957.0 218.0 L957.0 195.0" /><defs><linearGradient xmlns:xlink="http://www.w3.org/1999/xlink" xlink:href="#linearGradient66FF6696FF96B6FFB6" id="linearGradient66FF6696FF96B6FFB6_9470845" x1="0" y1="160.0" x2="0" y2="195.0" gradientUnits="userSpaceOnUse" xlink:type="simple" xlink:actuate="onLoad" xlink:show="other" /><linearGradient id="linearGradient66FF6696FF96B6FFB6"><stop style="stop-color:#66FF66;stop-opacity:1;" offset="0.0" id="stop66FF66" /><stop style="stop-color:#96FF96;stop-opacity:1;" offset="0.5" id="stop96FF96" /><stop style="stop-color:#B6FFB6;stop-opacity:1;" offset="1.0" id="stopB6FFB6" /></linearGradient><linearGradient xmlns:xlink="http://www.w3.org/1999/xlink" xlink:href="#linearGradientF8FBFEEDF5FCDEEDFAD4E7F8E2E5E9" id="linearGradientF8FBFEEDF5FCDEEDFAD4E7F8E2E5E9_5726623" x1="0" y1="150.0" x2="0" y2="255.0" gradientUnits="userSpaceOnUse" xlink:type="simple" xlink:actuate="onLoad" xlink:show="other" /><linearGradient id="linearGradientF8FBFEEDF5FCDEEDFAD4E7F8E2E5E9"><stop style="stop-color:#F8FBFE;stop-opacity:1;" offset="0.0" id="stopF8FBFE" /><stop style="stop-color:#EDF5FC;stop-opacity:1;" offset="0.25" id="stopEDF5FC" /><stop style="stop-color:#DEEDFA;stop-opacity:1;" offset="0.5" id="stopDEEDFA" /><stop style="stop-color:#D4E7F8;stop-opacity:1;" offset="0.75" id="stopD4E7F8" /><stop style="stop-color:#E2E5E9;stop-opacity:1;" offset="1.0" id="stopE2E5E9" /></linearGradient><linearGradient xmlns:xlink="http://www.w3.org/1999/xlink" xlink:href="#linearGradientFAFBFCFFFFCC" id="linearGradientFAFBFCFFFFCC_6875149" x1="0" y1="120.0" x2="0" y2="180.0" gradientUnits="userSpaceOnUse" xlink:type="simple" xlink:actuate="onLoad" xlink:show="other" /><linearGradient id="linearGradientFAFBFCFFFFCC"><stop style="stop-color:#FAFBFC;stop-opacity:1;" offset="0.0" id="stopFAFBFC" /><stop style="stop-color:#FFFFCC;stop-opacity:1;" offset="1.0" id="stopFFFFCC" /></linearGradient><linearGradient xmlns:xlink="http://www.w3.org/1999/xlink" xlink:href="#linearGradientF8FBFEEDF5FCDEEDFAD4E7F8E2E5E9" id="linearGradientF8FBFEEDF5FCDEEDFAD4E7F8E2E5E9_23751588" x1="0" y1="150.0" x2="0" y2="255.0" gradientUnits="userSpaceOnUse" xlink:type="simple" xlink:actuate="onLoad" xlink:show="other" /><linearGradient xmlns:xlink="http://www.w3.org/1999/xlink" xlink:href="#linearGradientFAFBFCFFFFCC" id="linearGradientFAFBFCFFFFCC_25267935" x1="0" y1="128.0" x2="0" y2="188.0" gradientUnits="userSpaceOnUse" xlink:type="simple" xlink:actuate="onLoad" xlink:show="other" /><linearGradient xmlns:xlink="http://www.w3.org/1999/xlink" xlink:href="#linearGradientF8FBFEEDF5FCDEEDFAD4E7F8E2E5E9" id="linearGradientF8FBFEEDF5FCDEEDFAD4E7F8E2E5E9_738729" x1="0" y1="143.0" x2="0" y2="248.0" gradientUnits="userSpaceOnUse" xlink:type="simple" xlink:actuate="onLoad" xlink:show="other" /><linearGradient xmlns:xlink="http://www.w3.org/1999/xlink" xlink:href="#linearGradientFFFF66FFFF96FFFFB6" id="linearGradientFFFF66FFFF96FFFFB6_17497701" x1="0" y1="160.0" x2="0" y2="195.0" gradientUnits="userSpaceOnUse" xlink:type="simple" xlink:actuate="onLoad" xlink:show="other" /><linearGradient id="linearGradientFFFF66FFFF96FFFFB6"><stop style="stop-color:#FFFF66;stop-opacity:1;" offset="0.0" id="stopFFFF66" /><stop style="stop-color:#FFFF96;stop-opacity:1;" offset="0.5" id="stopFFFF96" /><stop style="stop-color:#FFFFB6;stop-opacity:1;" offset="1.0" id="stopFFFFB6" /></linearGradient><linearGradient xmlns:xlink="http://www.w3.org/1999/xlink" xlink:href="#linearGradientF8FBFEEDF5FCDEEDFAD4E7F8E2E5E9" id="linearGradientF8FBFEEDF5FCDEEDFAD4E7F8E2E5E9_21337323" x1="0" y1="143.0" x2="0" y2="248.0" gradientUnits="userSpaceOnUse" xlink:type="simple" xlink:actuate="onLoad" xlink:show="other" /><linearGradient xmlns:xlink="http://www.w3.org/1999/xlink" xlink:href="#linearGradientFF6666FF9696FFB6B6" id="linearGradientFF6666FF9696FFB6B6_16059434" x1="0" y1="161.0" x2="0" y2="196.0" gradientUnits="userSpaceOnUse" xlink:type="simple" xlink:actuate="onLoad" xlink:show="other" /><linearGradient id="linearGradientFF6666FF9696FFB6B6"><stop style="stop-color:#FF6666;stop-opacity:1;" offset="0.0" id="stopFF6666" /><stop style="stop-color:#FF9696;stop-opacity:1;" offset="0.5" id="stopFF9696" /><stop style="stop-color:#FFB6B6;stop-opacity:1;" offset="1.0" id="stopFFB6B6" /></linearGradient><linearGradient xmlns:xlink="http://www.w3.org/1999/xlink" xlink:href="#linearGradientFAFBFCFFFFCC" id="linearGradientFAFBFCFFFFCC_1259024" x1="0" y1="120.0" x2="0" y2="180.0" gradientUnits="userSpaceOnUse" xlink:type="simple" xlink:actuate="onLoad" xlink:show="other" /></defs></svg>
